<svg version="1.1" xmlns="http://www.w3.org/2000/svg" viewBox="0 0 376.5 225.5" width="376.5" height="225.5" class="excalidraw-svg">
  <!-- svg-source:excalidraw -->
  
  <defs>
    <style class="style-fonts">
      @font-face {
        font-family: "Virgil";
        src: url("https://excalidraw.com/Virgil.woff2");
      }
      @font-face {
        font-family: "Cascadia";
        src: url("https://excalidraw.com/Cascadia.woff2");
      }
      @font-face {
        font-family: "Assistant";
        src: url("https://excalidraw.com/Assistant-Regular.woff2");
      }
    </style>
    
  </defs>
  <rect x="0" y="0" width="376.5" height="225.5" fill="#ffffff"/><g transform="translate(152 215.5) rotate(0 -1 -17.75)" stroke="none"><path fill="#1e1e1e" d="M -1.72,0 Q -1.72,0 -2.14,-1.15 -2.56,-2.3 -2.63,-3.79 -2.70,-5.28 -2.73,-6.93 -2.75,-8.57 -2.76,-10.56 -2.77,-12.55 -2.77,-15.27 -2.78,-17.98 -2.90,-20.20 -3.02,-22.42 -3.00,-24.97 -2.98,-27.53 -3.02,-30.70 -3.05,-33.87 -3.06,-34.08 -3.06,-34.30 -2.99,-34.50 -2.92,-34.70 -2.79,-34.87 -2.67,-35.04 -2.49,-35.16 -2.32,-35.28 -2.11,-35.34 -1.91,-35.39 -1.69,-35.38 -1.48,-35.37 -1.28,-35.29 -1.09,-35.22 -0.92,-35.08 -0.76,-34.94 -0.65,-34.76 -0.54,-34.58 -0.49,-34.37 -0.45,-34.16 -0.47,-33.95 -0.49,-33.74 -0.58,-33.55 -0.67,-33.36 -0.82,-33.20 -0.96,-33.05 -1.15,-32.95 -1.34,-32.85 -1.55,-32.81 -1.76,-32.78 -1.97,-32.81 -2.18,-32.84 -2.36,-32.94 -2.55,-33.04 -2.70,-33.19 -2.84,-33.35 -2.93,-33.54 -3.02,-33.73 -3.05,-33.94 -3.07,-34.16 -3.03,-34.36 -2.98,-34.57 -2.87,-34.75 -2.76,-34.94 -2.60,-35.07 -2.44,-35.21 -2.24,-35.29 -2.05,-35.37 -1.83,-35.38 -1.62,-35.39 -1.42,-35.34 -1.21,-35.28 -1.04,-35.16 -0.86,-35.05 -0.73,-34.88 -0.60,-34.71 -0.53,-34.51 -0.46,-34.31 -0.46,-34.31 -0.46,-34.31 0.56,-31.10 1.59,-27.89 2.02,-25.33 2.44,-22.76 2.61,-20.37 2.78,-17.98 2.77,-15.27 2.77,-12.55 2.76,-10.56 2.75,-8.57 2.73,-6.93 2.70,-5.28 2.63,-3.79 2.56,-2.3 2.14,-1.15 1.72,0 1.69,0.20 1.67,0.41 1.60,0.60 1.52,0.80 1.40,0.97 1.29,1.14 1.13,1.28 0.97,1.41 0.79,1.51 0.61,1.61 0.40,1.66 0.20,1.71 -0.00,1.71 -0.20,1.71 -0.40,1.66 -0.61,1.61 -0.79,1.51 -0.97,1.41 -1.13,1.28 -1.29,1.14 -1.40,0.97 -1.52,0.80 -1.60,0.60 -1.67,0.41 -1.69,0.20 -1.72,-0.00 -1.72,-0.00 L -1.72,0 Z"/></g><g transform="translate(147.5 149) rotate(0 -1.25 -16)" stroke="none"><path fill="#1e1e1e" d="M -1.48,0.26 Q -1.48,0.26 -2.27,-1.22 -3.06,-2.71 -3.21,-4.36 -3.37,-6.02 -3.56,-7.79 -3.76,-9.55 -3.85,-13.45 -3.94,-17.34 -3.78,-20.55 -3.61,-23.75 -3.61,-27.05 -3.61,-30.34 -3.60,-30.56 -3.59,-30.77 -3.52,-30.97 -3.44,-31.17 -3.31,-31.33 -3.17,-31.50 -2.99,-31.61 -2.81,-31.72 -2.61,-31.77 -2.40,-31.82 -2.19,-31.80 -1.98,-31.78 -1.78,-31.70 -1.59,-31.61 -1.43,-31.47 -1.27,-31.33 -1.17,-31.14 -1.07,-30.95 -1.03,-30.75 -0.99,-30.54 -1.02,-30.33 -1.05,-30.12 -1.15,-29.93 -1.24,-29.74 -1.40,-29.59 -1.55,-29.44 -1.74,-29.35 -1.93,-29.25 -2.14,-29.23 -2.35,-29.20 -2.56,-29.24 -2.77,-29.28 -2.95,-29.39 -3.14,-29.49 -3.28,-29.65 -3.42,-29.81 -3.50,-30.01 -3.58,-30.20 -3.60,-30.42 -3.61,-30.63 -3.56,-30.83 -3.51,-31.04 -3.39,-31.22 -3.28,-31.40 -3.11,-31.53 -2.94,-31.66 -2.74,-31.73 -2.54,-31.80 -2.33,-31.81 -2.12,-31.81 -1.91,-31.75 -1.71,-31.68 -1.54,-31.56 -1.37,-31.43 -1.25,-31.26 -1.12,-31.08 -1.06,-30.88 -1.00,-30.68 -1.00,-30.68 -1.00,-30.68 -0.14,-27.24 0.72,-23.81 0.95,-20.63 1.19,-17.46 1.27,-13.78 1.34,-10.11 1.53,-8.27 1.73,-6.43 1.82,-5.02 1.91,-3.61 1.69,-1.94 1.48,-0.26 1.49,-0.08 1.50,0.09 1.47,0.27 1.43,0.45 1.36,0.61 1.28,0.78 1.17,0.92 1.06,1.06 0.92,1.17 0.77,1.29 0.61,1.36 0.44,1.43 0.26,1.47 0.08,1.50 -0.09,1.49 -0.27,1.48 -0.44,1.42 -0.62,1.37 -0.77,1.27 -0.93,1.18 -1.05,1.05 -1.18,0.92 -1.28,0.77 -1.37,0.61 -1.42,0.44 -1.48,0.26 -1.48,0.26 L -1.48,0.26 Z"/></g><g transform="translate(142 83.5) rotate(0 -1 -15)" stroke="none"><path fill="#1e1e1e" d="M -1.50,0 Q -1.50,0 -2.04,-1.58 -2.58,-3.16 -2.33,-6.81 -2.08,-10.47 -1.97,-13.50 -1.86,-16.54 -1.80,-18.69 -1.74,-20.84 -1.59,-22.45 -1.44,-24.07 -1.28,-25.29 -1.12,-26.51 -2.26,-27.59 -3.40,-28.68 -3.55,-28.82 -3.70,-28.97 -3.80,-29.16 -3.90,-29.35 -3.93,-29.56 -3.96,-29.77 -3.93,-29.98 -3.89,-30.19 -3.79,-30.37 -3.69,-30.56 -3.53,-30.71 -3.38,-30.85 -3.18,-30.94 -2.99,-31.03 -2.78,-31.05 -2.57,-31.07 -2.36,-31.02 -2.15,-30.97 -1.97,-30.86 -1.79,-30.75 -1.66,-30.59 -1.52,-30.42 -1.44,-30.23 -1.37,-30.03 -1.36,-29.82 -1.35,-29.60 -1.41,-29.40 -1.46,-29.20 -1.59,-29.02 -1.71,-28.85 -1.88,-28.72 -2.05,-28.59 -2.25,-28.53 -2.45,-28.46 -2.66,-28.46 -2.88,-28.46 -3.08,-28.53 -3.28,-28.60 -3.45,-28.73 -3.61,-28.86 -3.73,-29.04 -3.85,-29.22 -3.90,-29.42 -3.96,-29.63 -3.94,-29.84 -3.93,-30.05 -3.85,-30.25 -3.77,-30.44 -3.63,-30.61 -3.49,-30.77 -3.31,-30.87 -3.13,-30.98 -2.92,-31.03 -2.71,-31.07 -2.50,-31.04 -2.29,-31.02 -2.10,-30.93 -1.90,-30.84 -1.90,-30.84 -1.90,-30.84 -0.26,-29.07 1.37,-27.29 2.37,-25.68 3.37,-24.07 3.48,-22.39 3.59,-20.72 3.54,-18.52 3.50,-16.32 3.37,-13.18 3.23,-10.04 2.91,-6.60 2.58,-3.16 2.04,-1.58 1.50,0 1.47,0.17 1.45,0.35 1.39,0.52 1.32,0.69 1.22,0.84 1.12,0.99 0.98,1.11 0.85,1.23 0.69,1.31 0.53,1.40 0.35,1.44 0.18,1.49 -0.00,1.49 -0.18,1.49 -0.35,1.44 -0.53,1.40 -0.69,1.31 -0.85,1.23 -0.98,1.11 -1.12,0.99 -1.22,0.84 -1.32,0.69 -1.39,0.52 -1.45,0.35 -1.47,0.17 -1.50,-0.00 -1.50,-0.00 L -1.50,0 Z"/></g><g transform="translate(140.5 32) rotate(0 0.5 -11)" stroke="none"><path fill="#1e1e1e" d="M -1.50,0 Q -1.50,0 -1.91,-2.15 -2.33,-4.31 -2.34,-6.23 -2.35,-8.15 -2.20,-10.62 -2.06,-13.09 -1.85,-15.03 -1.63,-16.96 -1.20,-18.98 -0.77,-20.99 -0.75,-21.20 -0.72,-21.41 -0.63,-21.60 -0.53,-21.80 -0.39,-21.95 -0.24,-22.10 -0.05,-22.20 0.13,-22.29 0.34,-22.32 0.55,-22.35 0.76,-22.32 0.97,-22.28 1.16,-22.18 1.34,-22.07 1.49,-21.92 1.63,-21.76 1.72,-21.57 1.80,-21.37 1.82,-21.16 1.84,-20.95 1.79,-20.74 1.74,-20.53 1.63,-20.35 1.52,-20.17 1.35,-20.04 1.19,-19.90 0.99,-19.83 0.79,-19.75 0.58,-19.75 0.37,-19.74 0.16,-19.80 -0.03,-19.86 -0.20,-19.98 -0.38,-20.10 -0.50,-20.27 -0.63,-20.45 -0.69,-20.65 -0.76,-20.85 -0.76,-21.06 -0.75,-21.28 -0.68,-21.48 -0.61,-21.68 -0.48,-21.84 -0.35,-22.01 -0.17,-22.13 0.00,-22.24 0.21,-22.30 0.41,-22.35 0.62,-22.33 0.83,-22.32 1.03,-22.24 1.23,-22.15 1.39,-22.01 1.55,-21.87 1.65,-21.69 1.76,-21.51 1.80,-21.30 1.84,-21.09 1.84,-21.09 1.84,-21.09 2.43,-18.78 3.02,-16.46 2.83,-14.64 2.64,-12.81 2.49,-10.48 2.35,-8.15 2.34,-6.23 2.33,-4.31 1.91,-2.15 1.50,0 1.48,0.17 1.45,0.35 1.39,0.52 1.33,0.69 1.22,0.84 1.12,0.99 0.98,1.11 0.85,1.23 0.69,1.32 0.53,1.40 0.35,1.44 0.18,1.49 -0.00,1.49 -0.18,1.49 -0.35,1.44 -0.53,1.40 -0.69,1.32 -0.85,1.23 -0.98,1.11 -1.12,0.99 -1.22,0.84 -1.33,0.69 -1.39,0.52 -1.45,0.35 -1.48,0.17 -1.50,-0.00 -1.50,-0.00 L -1.50,0 Z"/></g><g transform="translate(142 102.5) rotate(0 0.5 -0.25)" stroke="none"><path fill="#1e1e1e" d="M -1.63,-0.23 Q -1.63,-0.23 -1.81,-1.28 -1.99,-2.33 -1.91,-2.60 -1.84,-2.87 -1.71,-3.11 -1.57,-3.35 -1.39,-3.56 -1.20,-3.76 -0.97,-3.92 -0.73,-4.07 -0.47,-4.16 -0.21,-4.25 0.05,-4.28 0.33,-4.31 0.61,-4.27 0.88,-4.23 1.14,-4.13 1.40,-4.02 1.62,-3.86 1.85,-3.70 2.02,-3.49 2.20,-3.27 2.33,-3.03 2.45,-2.78 2.51,-2.51 2.57,-2.24 2.57,-1.96 2.56,-1.68 3.56,-0.75 4.55,0.18 4.19,1.71 3.83,3.25 1.96,4.07 0.10,4.88 -1.41,3.89 -2.94,2.90 -3.26,1.53 -3.59,0.17 -3.15,-0.95 -2.71,-2.09 -0.96,-2.81 0.78,-3.53 0.44,-2.56 0.10,-1.59 0.26,-1.60 0.41,-1.61 0.57,-1.58 0.72,-1.55 0.87,-1.49 1.01,-1.42 1.14,-1.32 1.26,-1.23 1.36,-1.10 1.46,-0.98 1.52,-0.83 1.59,-0.69 1.61,-0.53 1.64,-0.38 1.63,-0.22 1.62,-0.06 1.57,0.08 1.53,0.23 1.44,0.37 1.36,0.50 1.25,0.61 1.14,0.73 1.00,0.81 0.87,0.89 0.72,0.94 0.56,0.98 0.71,0.94 0.86,0.89 0.65,0.95 0.44,1.00 0.23,0.98 0.02,0.97 -0.17,0.88 -0.36,0.80 -0.52,0.66 -0.68,0.52 -0.78,0.33 -0.89,0.15 -0.93,-0.05 -0.97,-0.26 -0.94,-0.47 -0.92,-0.68 -0.82,-0.87 -0.73,-1.06 -0.58,-1.21 -0.43,-1.36 -0.24,-1.46 -0.05,-1.55 0.15,-1.58 0.36,-1.61 0.57,-1.57 0.78,-1.53 0.96,-1.43 1.15,-1.33 1.29,-1.17 1.43,-1.01 1.52,-0.82 1.60,-0.62 1.62,-0.41 1.64,-0.20 1.59,0.00 1.54,0.20 1.43,0.38 1.31,0.56 1.15,0.70 0.98,0.83 0.78,0.90 0.58,0.98 0.37,0.99 0.16,0.99 -0.03,0.93 -0.24,0.87 -0.41,0.75 -0.58,0.62 -0.71,0.45 -0.83,0.28 -0.90,0.08 -0.96,-0.12 -0.96,-0.33 -0.95,-0.54 -0.88,-0.74 -0.81,-0.94 -0.67,-1.11 -0.54,-1.27 -0.22,-1.43 0.10,-1.59 0.26,-1.60 0.41,-1.61 0.57,-1.58 0.72,-1.55 0.87,-1.49 1.01,-1.42 1.14,-1.32 1.26,-1.23 1.36,-1.10 1.46,-0.98 1.52,-0.83 1.59,-0.69 1.61,-0.53 1.64,-0.38 1.63,-0.22 1.62,-0.06 1.57,0.08 1.53,0.23 1.44,0.37 1.36,0.50 1.25,0.61 1.14,0.73 1.00,0.81 0.87,0.89 0.72,0.94 0.56,0.98 0.39,0.58 0.21,0.18 -0.88,-1.07 -1.99,-2.33 -1.91,-2.60 -1.84,-2.87 -1.71,-3.11 -1.57,-3.35 -1.39,-3.56 -1.20,-3.76 -0.97,-3.92 -0.73,-4.07 -0.47,-4.16 -0.21,-4.25 0.05,-4.28 0.33,-4.31 0.61,-4.27 0.88,-4.23 1.14,-4.13 1.39,-4.02 1.62,-3.86 1.84,-3.70 2.02,-3.49 2.20,-3.28 2.33,-3.03 2.45,-2.78 2.51,-2.51 2.57,-2.24 2.57,-1.96 2.56,-1.68 2.09,-0.72 1.63,0.23 1.57,0.42 1.52,0.61 1.43,0.79 1.33,0.96 1.20,1.10 1.06,1.25 0.90,1.36 0.73,1.47 0.54,1.54 0.36,1.60 0.16,1.62 -0.03,1.64 -0.23,1.61 -0.42,1.59 -0.61,1.51 -0.79,1.44 -0.95,1.32 -1.11,1.20 -1.24,1.05 -1.37,0.90 -1.46,0.72 -1.55,0.55 -1.59,0.35 -1.63,0.16 -1.63,-0.03 -1.63,-0.23 -1.63,-0.23 L -1.63,-0.23 Z"/></g><g transform="translate(138.5 99.5) rotate(0 33.75 2.25)" stroke="none"><path fill="#1e1e1e" d="M -0.13,-1.53 Q -0.13,-1.53 1.40,-2.03 2.95,-2.52 4.25,-2.61 5.54,-2.69 7.00,-2.88 8.47,-3.06 9.79,-3.28 11.10,-3.50 13.40,-3.62 15.69,-3.75 17.36,-3.80 19.02,-3.84 20.45,-3.87 21.87,-3.89 23.06,-3.90 24.24,-3.92 25.32,-3.92 26.40,-3.93 28.45,-3.94 30.50,-3.95 31.65,-3.95 32.80,-3.95 34.29,-3.96 35.79,-3.97 37.14,-3.82 38.50,-3.67 40.31,-3.60 42.12,-3.54 43.96,-3.31 45.79,-3.09 47.68,-3.06 49.56,-3.03 51.54,-3.02 53.53,-3.02 55.11,-3.02 56.70,-3.02 58.13,-3.02 59.57,-3.02 60.98,-2.83 62.39,-2.64 63.46,-2.58 64.54,-2.52 65.66,-2.22 66.77,-1.92 67.08,-1.98 67.38,-2.03 67.68,-1.96 67.98,-1.89 68.25,-1.76 68.52,-1.62 68.76,-1.42 68.99,-1.22 69.17,-0.97 69.34,-0.73 69.46,-0.44 69.57,-0.16 69.61,0.13 69.65,0.43 69.62,0.74 69.59,1.04 69.49,1.33 69.38,1.62 69.22,1.87 69.05,2.12 68.82,2.33 68.60,2.54 68.33,2.68 68.06,2.83 67.77,2.91 67.47,2.99 67.17,2.99 66.86,3.00 65.69,2.15 64.53,1.29 63.10,0.58 61.68,-0.13 60.44,-1.24 59.21,-2.34 58.27,-3.23 57.34,-4.12 56.56,-5.03 55.77,-5.95 54.90,-6.89 54.03,-7.84 53.83,-8.13 53.63,-8.42 53.51,-8.74 53.38,-9.07 53.34,-9.41 53.30,-9.76 53.34,-10.11 53.38,-10.45 53.50,-10.78 53.62,-11.11 53.82,-11.39 54.02,-11.68 54.28,-11.91 54.54,-12.14 54.85,-12.31 55.16,-12.47 55.50,-12.55 55.83,-12.64 56.18,-12.64 56.53,-12.64 56.87,-12.56 57.21,-12.48 57.52,-12.31 57.83,-12.15 58.09,-11.92 58.35,-11.69 60.15,-10.85 61.94,-10.01 63.09,-9.17 64.23,-8.34 65.89,-7.22 67.55,-6.11 68.57,-5.01 69.58,-3.92 69.83,-2.84 70.07,-1.77 69.58,-0.27 69.09,1.21 68.20,2.36 67.31,3.51 65.68,5.37 64.06,7.24 62.38,9.16 60.70,11.09 59.23,12.66 57.76,14.23 55.85,14.85 53.93,15.48 53.75,15.59 53.57,15.70 53.36,15.75 53.16,15.80 52.95,15.79 52.73,15.77 52.54,15.68 52.35,15.60 52.19,15.45 52.03,15.31 51.93,15.13 51.82,14.94 51.79,14.73 51.75,14.52 51.78,14.31 51.81,14.10 51.90,13.91 52.00,13.72 52.15,13.57 52.30,13.42 52.49,13.33 52.68,13.24 52.89,13.21 53.10,13.18 53.31,13.22 53.52,13.26 53.70,13.37 53.89,13.48 54.03,13.63 54.17,13.79 54.25,13.99 54.34,14.19 54.35,14.40 54.37,14.61 54.32,14.81 54.26,15.02 54.15,15.20 54.03,15.38 53.87,15.51 53.70,15.64 53.50,15.71 53.30,15.79 53.09,15.79 52.87,15.79 52.67,15.73 52.47,15.67 52.30,15.54 52.13,15.42 52.00,15.24 51.88,15.07 51.82,14.87 51.76,14.66 51.76,14.45 51.77,14.24 51.85,14.04 51.92,13.84 52.05,13.68 52.19,13.51 52.19,13.51 52.19,13.51 52.83,11.87 53.48,10.22 54.89,8.72 56.29,7.22 57.99,5.30 59.69,3.37 61.28,1.60 62.88,-0.16 63.92,-0.58 64.95,-1.00 63.93,-1.84 62.90,-2.69 61.06,-3.89 59.23,-5.09 58.01,-5.77 56.80,-6.45 55.41,-7.15 54.03,-7.84 53.83,-8.13 53.63,-8.42 53.51,-8.74 53.38,-9.07 53.34,-9.41 53.30,-9.76 53.34,-10.11 53.38,-10.45 53.50,-10.78 53.62,-11.11 53.82,-11.39 54.02,-11.68 54.28,-11.91 54.54,-12.14 54.85,-12.31 55.16,-12.47 55.50,-12.55 55.83,-12.64 56.18,-12.64 56.53,-12.64 56.87,-12.56 57.21,-12.48 57.52,-12.31 57.83,-12.15 58.09,-11.92 58.35,-11.69 58.82,-11.20 59.30,-10.71 60.32,-9.51 61.34,-8.32 62.22,-7.48 63.10,-6.64 64.11,-5.71 65.12,-4.79 66.05,-4.09 66.99,-3.40 68.28,-2.14 69.57,-0.88 68.48,-1.46 67.38,-2.03 67.68,-1.96 67.98,-1.89 68.25,-1.76 68.52,-1.62 68.76,-1.42 68.99,-1.22 69.17,-0.97 69.34,-0.73 69.46,-0.44 69.57,-0.16 69.61,0.13 69.65,0.43 69.62,0.74 69.59,1.04 69.49,1.33 69.38,1.62 69.22,1.87 69.05,2.12 68.82,2.33 68.60,2.54 68.33,2.68 68.06,2.83 67.77,2.91 67.47,2.99 67.17,2.99 66.86,3.00 65.87,2.73 64.89,2.46 63.66,2.43 62.44,2.41 61.00,2.22 59.56,2.02 58.13,2.02 56.70,2.02 55.11,2.02 53.51,2.01 51.51,2.00 49.50,1.99 47.47,1.94 45.44,1.90 43.71,1.68 41.98,1.46 39.95,1.35 37.91,1.25 36.85,1.11 35.78,0.97 34.29,0.96 32.80,0.95 31.65,0.95 30.50,0.95 28.46,0.94 26.41,0.94 25.34,0.94 24.27,0.94 23.10,0.94 21.93,0.94 20.53,0.95 19.13,0.96 17.51,0.99 15.90,1.02 13.86,1.08 11.83,1.14 10.41,1.35 8.98,1.56 7.37,1.72 5.76,1.87 4.56,1.91 3.36,1.95 1.75,1.74 0.13,1.53 -0.04,1.52 -0.23,1.52 -0.41,1.47 -0.58,1.42 -0.75,1.33 -0.91,1.24 -1.04,1.11 -1.18,0.98 -1.28,0.83 -1.38,0.67 -1.44,0.49 -1.50,0.32 -1.52,0.13 -1.54,-0.04 -1.51,-0.23 -1.48,-0.41 -1.41,-0.58 -1.34,-0.75 -1.23,-0.90 -1.12,-1.05 -0.97,-1.17 -0.83,-1.29 -0.66,-1.37 -0.50,-1.45 -0.32,-1.49 -0.13,-1.53 -0.13,-1.53 L -0.13,-1.53 Z"/></g><g transform="translate(224 105.5) rotate(0 0.5 -5)" stroke="none"><path fill="#1e1e1e" d="M -0.77,-0.12 Q -0.77,-0.12 -0.97,-1.04 -1.16,-1.96 -0.96,-2.94 -0.76,-3.92 -0.68,-4.67 -0.61,-5.42 -0.13,-7.58 0.33,-9.73 0.35,-9.84 0.37,-9.94 0.42,-10.03 0.47,-10.13 0.55,-10.20 0.63,-10.27 0.73,-10.31 0.82,-10.36 0.93,-10.37 1.04,-10.38 1.14,-10.35 1.24,-10.33 1.33,-10.27 1.42,-10.22 1.49,-10.13 1.56,-10.05 1.60,-9.95 1.63,-9.85 1.64,-9.75 1.64,-9.64 1.61,-9.54 1.58,-9.44 1.52,-9.35 1.46,-9.26 1.37,-9.20 1.29,-9.14 1.19,-9.11 1.09,-9.07 0.98,-9.07 0.87,-9.08 0.77,-9.11 0.67,-9.15 0.59,-9.21 0.51,-9.28 0.45,-9.37 0.39,-9.46 0.36,-9.56 0.34,-9.66 0.34,-9.77 0.35,-9.87 0.39,-9.97 0.43,-10.07 0.50,-10.15 0.57,-10.23 0.67,-10.28 0.76,-10.34 0.86,-10.36 0.97,-10.38 1.07,-10.37 1.18,-10.35 1.27,-10.31 1.37,-10.26 1.44,-10.19 1.52,-10.11 1.57,-10.02 1.62,-9.92 1.63,-9.82 1.65,-9.71 1.65,-9.71 1.65,-9.71 2.00,-7.41 2.36,-5.11 2.25,-4.20 2.15,-3.29 1.94,-2.38 1.74,-1.48 1.25,-0.67 0.77,0.12 0.74,0.21 0.71,0.31 0.67,0.39 0.62,0.47 0.55,0.54 0.49,0.60 0.41,0.65 0.33,0.70 0.24,0.73 0.15,0.76 0.05,0.77 -0.03,0.78 -0.12,0.76 -0.22,0.75 -0.30,0.71 -0.39,0.67 -0.46,0.61 -0.54,0.56 -0.60,0.48 -0.66,0.41 -0.70,0.33 -0.74,0.24 -0.76,0.15 -0.78,0.05 -0.77,-0.03 -0.77,-0.12 -0.77,-0.12 L -0.77,-0.12 Z"/></g><g transform="translate(225 85) rotate(0 -0.5 1.25)" stroke="none"><path fill="#1e1e1e" d="M 0.74,0.18 Q 0.74,0.18 0.54,0.54 0.35,0.90 0.32,0.98 0.29,1.05 0.25,1.11 0.20,1.18 0.14,1.23 0.08,1.28 0.01,1.32 -0.05,1.36 -0.12,1.38 -0.20,1.39 -0.28,1.39 -0.36,1.39 -0.44,1.37 -0.51,1.36 -0.58,1.32 -0.65,1.28 -0.71,1.23 -0.77,1.18 -0.82,1.11 -0.86,1.05 -0.89,0.97 -0.92,0.90 -0.93,0.82 -0.94,0.74 -0.93,0.66 -0.92,0.58 -0.85,0.45 -0.79,0.33 -0.71,0.26 -0.63,0.19 -0.53,0.14 -0.43,0.10 -0.32,0.10 -0.22,0.09 -0.12,0.12 -0.01,0.14 0.07,0.20 0.16,0.26 0.22,0.34 0.29,0.43 0.32,0.53 0.36,0.63 0.36,0.73 0.36,0.84 0.33,0.94 0.30,1.04 0.23,1.13 0.17,1.21 0.08,1.27 0.00,1.33 -0.09,1.36 -0.20,1.39 -0.30,1.39 -0.41,1.39 -0.51,1.35 -0.61,1.31 -0.69,1.24 -0.77,1.18 -0.83,1.09 -0.88,1.00 -0.91,0.89 -0.93,0.79 -0.92,0.68 -0.91,0.58 -0.87,0.48 -0.83,0.38 -0.76,0.30 -0.68,0.23 -0.59,0.17 -0.50,0.12 -0.39,0.10 -0.29,0.09 -0.18,0.10 -0.08,0.12 0.01,0.17 0.10,0.21 0.17,0.29 0.25,0.37 0.30,0.46 0.34,0.56 0.35,0.66 0.37,0.77 0.35,0.87 0.33,0.98 0.34,0.94 0.35,0.90 0.32,0.98 0.29,1.05 0.25,1.11 0.20,1.18 0.14,1.23 0.08,1.28 0.01,1.32 -0.05,1.36 -0.12,1.38 -0.20,1.39 -0.28,1.39 -0.36,1.39 -0.44,1.37 -0.51,1.36 -0.58,1.32 -0.65,1.28 -0.71,1.23 -0.77,1.18 -0.82,1.11 -0.86,1.05 -0.89,0.97 -0.92,0.90 -0.93,0.82 -0.94,0.74 -0.93,0.66 -0.92,0.58 -0.83,0.20 -0.74,-0.18 -0.71,-0.27 -0.67,-0.35 -0.62,-0.43 -0.57,-0.51 -0.50,-0.57 -0.43,-0.63 -0.35,-0.67 -0.27,-0.71 -0.18,-0.74 -0.09,-0.76 0.00,-0.76 0.09,-0.76 0.18,-0.74 0.27,-0.71 0.35,-0.67 0.43,-0.63 0.50,-0.56 0.57,-0.50 0.62,-0.43 0.68,-0.35 0.71,-0.26 0.74,-0.18 0.75,-0.08 0.76,0.00 0.75,0.09 0.74,0.18 0.74,0.18 L 0.74,0.18 Z"/></g><g transform="translate(224.5 88.5) rotate(0 0.5 -2)" stroke="none"><path fill="#1e1e1e" d="M -0.76,0 Q -0.76,0 -1.02,-0.72 -1.28,-1.44 -1.12,-2.18 -0.96,-2.92 -0.74,-2.17 -0.52,-1.42 -0.50,-1.49 -0.48,-1.57 -0.44,-1.64 -0.40,-1.71 -0.35,-1.76 -0.29,-1.82 -0.23,-1.86 -0.16,-1.91 -0.09,-1.93 -0.01,-1.96 0.06,-1.97 0.14,-1.97 0.21,-1.96 0.29,-1.95 0.37,-1.92 0.44,-1.89 0.50,-1.84 0.57,-1.79 0.62,-1.73 0.67,-1.67 0.70,-1.60 0.74,-1.53 0.75,-1.45 0.77,-1.37 0.77,-1.30 0.76,-1.22 0.74,-1.13 0.72,-1.05 0.66,-0.96 0.60,-0.87 0.52,-0.81 0.43,-0.74 0.33,-0.71 0.23,-0.67 0.13,-0.67 0.02,-0.67 -0.07,-0.70 -0.17,-0.73 -0.26,-0.79 -0.34,-0.86 -0.40,-0.94 -0.47,-1.03 -0.50,-1.13 -0.53,-1.23 -0.52,-1.34 -0.52,-1.45 -0.48,-1.55 -0.44,-1.65 -0.38,-1.73 -0.31,-1.81 -0.22,-1.87 -0.13,-1.92 -0.02,-1.95 0.07,-1.97 0.17,-1.96 0.28,-1.95 0.38,-1.91 0.47,-1.87 0.55,-1.79 0.63,-1.72 0.68,-1.63 0.73,-1.54 0.75,-1.43 0.77,-1.33 0.76,-1.22 0.74,-1.12 0.69,-1.02 0.65,-0.93 0.57,-0.85 0.49,-0.78 0.40,-0.73 0.30,-0.69 0.20,-0.67 0.09,-0.66 -0.00,-0.68 -0.11,-0.70 -0.20,-0.76 -0.29,-0.81 -0.36,-0.89 -0.43,-0.97 -0.47,-1.07 -0.51,-1.16 -0.52,-1.27 -0.53,-1.38 -0.53,-1.40 -0.52,-1.42 -0.50,-1.49 -0.48,-1.57 -0.44,-1.64 -0.40,-1.71 -0.35,-1.76 -0.29,-1.82 -0.23,-1.86 -0.16,-1.91 -0.09,-1.93 -0.01,-1.96 0.06,-1.97 0.14,-1.97 0.21,-1.96 0.29,-1.95 0.37,-1.92 0.44,-1.89 0.50,-1.84 0.57,-1.79 0.62,-1.73 0.67,-1.67 0.70,-1.60 0.74,-1.53 0.75,-1.45 0.77,-1.37 0.77,-1.30 0.76,-1.22 1.18,-2.14 1.60,-3.07 1.44,-2.25 1.28,-1.42 1.02,-0.71 0.76,0 0.75,0.09 0.74,0.18 0.71,0.26 0.67,0.35 0.62,0.43 0.57,0.50 0.50,0.56 0.43,0.63 0.35,0.67 0.27,0.71 0.18,0.73 0.09,0.76 -0.00,0.76 -0.09,0.76 -0.18,0.73 -0.27,0.71 -0.35,0.67 -0.43,0.63 -0.50,0.56 -0.57,0.50 -0.62,0.43 -0.67,0.35 -0.71,0.26 -0.74,0.18 -0.75,0.09 -0.76,-0.00 -0.76,-0.00 L -0.76,0 Z"/></g><g transform="translate(219 82) rotate(0 5.5 -3.75)" stroke="none"><path fill="#1e1e1e" d="M -0.72,-0.36 Q -0.72,-0.36 -0.54,-1.34 -0.35,-2.33 0.29,-3.34 0.95,-4.35 1.53,-5.09 2.12,-5.83 2.48,-6.38 2.85,-6.94 3.51,-7.37 4.18,-7.81 4.69,-8.05 5.20,-8.29 6.14,-8.16 7.07,-8.04 7.77,-7.58 8.48,-7.13 8.96,-6.56 9.45,-5.98 10.33,-4.59 11.22,-3.21 11.28,-3.12 11.34,-3.03 11.37,-2.93 11.40,-2.83 11.40,-2.72 11.39,-2.62 11.35,-2.52 11.31,-2.42 11.25,-2.34 11.18,-2.25 11.09,-2.20 11.00,-2.14 10.89,-2.12 10.79,-2.10 10.68,-2.11 10.58,-2.12 10.48,-2.16 10.38,-2.20 10.31,-2.28 10.23,-2.35 10.18,-2.44 10.13,-2.53 10.11,-2.64 10.09,-2.74 10.11,-2.85 10.12,-2.95 10.17,-3.05 10.22,-3.14 10.30,-3.22 10.37,-3.29 10.47,-3.34 10.57,-3.38 10.67,-3.39 10.78,-3.41 10.88,-3.38 10.98,-3.36 11.08,-3.31 11.17,-3.26 11.24,-3.18 11.31,-3.10 11.35,-3.00 11.39,-2.90 11.39,-2.79 11.40,-2.69 11.37,-2.58 11.35,-2.48 11.29,-2.39 11.23,-2.30 11.15,-2.24 11.06,-2.17 10.96,-2.14 10.86,-2.10 10.75,-2.10 10.65,-2.10 10.55,-2.13 10.45,-2.17 10.36,-2.23 10.28,-2.29 10.28,-2.29 10.28,-2.29 8.86,-3.31 7.45,-4.32 6.84,-4.90 6.23,-5.49 5.63,-5.41 5.03,-5.34 4.64,-4.73 4.25,-4.13 3.74,-3.49 3.23,-2.86 2.65,-1.98 2.07,-1.11 1.40,-0.37 0.72,0.36 0.67,0.44 0.61,0.52 0.54,0.59 0.47,0.66 0.38,0.70 0.30,0.75 0.20,0.78 0.11,0.80 0.01,0.80 -0.08,0.80 -0.17,0.78 -0.27,0.76 -0.36,0.72 -0.44,0.67 -0.52,0.61 -0.59,0.55 -0.65,0.47 -0.71,0.39 -0.74,0.30 -0.78,0.21 -0.80,0.11 -0.81,0.01 -0.80,-0.08 -0.79,-0.17 -0.76,-0.27 -0.72,-0.36 -0.72,-0.36 L -0.72,-0.36 Z"/></g><g transform="translate(237.5 99) rotate(0 3.25 -0.25)" stroke="none"><path fill="#1e1e1e" d="M 0,-0.80 Q 0,-0.80 0.86,-1.07 1.72,-1.33 2.56,-1.47 3.40,-1.62 4.13,-1.68 4.86,-1.74 5.30,-1.66 5.75,-1.59 5.89,-1.58 6.02,-1.58 6.16,-1.54 6.29,-1.50 6.41,-1.44 6.53,-1.37 6.62,-1.28 6.72,-1.18 6.80,-1.07 6.87,-0.95 6.92,-0.82 6.96,-0.69 6.97,-0.56 6.99,-0.42 6.96,-0.28 6.94,-0.15 6.89,-0.02 6.84,0.09 6.76,0.20 6.68,0.31 6.57,0.40 6.46,0.49 6.34,0.55 6.22,0.61 6.08,0.64 5.95,0.66 4.24,0.56 2.54,0.45 2.43,0.44 2.32,0.44 2.23,0.39 2.13,0.35 2.05,0.28 1.97,0.21 1.92,0.12 1.87,0.02 1.85,-0.07 1.83,-0.18 1.84,-0.28 1.86,-0.39 1.90,-0.48 1.95,-0.58 2.03,-0.65 2.10,-0.73 2.20,-0.77 2.29,-0.82 2.40,-0.83 2.50,-0.85 2.61,-0.83 2.71,-0.81 2.80,-0.75 2.90,-0.70 2.97,-0.62 3.04,-0.54 3.08,-0.45 3.12,-0.35 3.13,-0.24 3.14,-0.14 3.11,-0.03 3.09,0.06 3.03,0.15 2.97,0.24 2.89,0.30 2.81,0.37 2.71,0.41 2.61,0.44 2.50,0.45 2.39,0.45 2.29,0.42 2.19,0.39 2.10,0.32 2.02,0.26 1.96,0.18 1.89,0.09 1.86,-0.00 1.83,-0.10 1.84,-0.21 1.84,-0.32 1.88,-0.42 1.91,-0.52 1.98,-0.60 2.05,-0.68 2.14,-0.74 2.23,-0.80 2.33,-0.82 2.43,-0.85 2.43,-0.85 2.43,-0.85 4.09,-1.22 5.75,-1.59 5.89,-1.58 6.02,-1.58 6.16,-1.54 6.29,-1.50 6.41,-1.44 6.53,-1.37 6.62,-1.28 6.72,-1.18 6.80,-1.07 6.87,-0.95 6.92,-0.82 6.96,-0.69 6.97,-0.56 6.99,-0.42 6.96,-0.28 6.94,-0.15 6.89,-0.02 6.84,0.09 6.76,0.20 6.68,0.31 6.57,0.40 6.46,0.49 6.34,0.55 6.22,0.61 6.08,0.64 5.95,0.66 5.52,0.79 5.10,0.92 4.45,0.98 3.81,1.04 2.76,1.19 1.72,1.33 0.86,1.07 0,0.80 -0.09,0.79 -0.19,0.78 -0.28,0.74 -0.37,0.71 -0.45,0.65 -0.53,0.60 -0.59,0.53 -0.66,0.45 -0.70,0.37 -0.75,0.28 -0.77,0.19 -0.79,0.09 -0.79,-0.00 -0.79,-0.09 -0.77,-0.19 -0.75,-0.28 -0.70,-0.37 -0.66,-0.45 -0.59,-0.53 -0.53,-0.60 -0.45,-0.65 -0.37,-0.71 -0.28,-0.74 -0.19,-0.78 -0.09,-0.79 0.00,-0.80 0.00,-0.80 L 0,-0.80 Z"/></g><g transform="translate(234.5 91.5) rotate(0 5 -1)" stroke="none"><path fill="#1e1e1e" d="M -0.23,-0.65 Q -0.23,-0.65 1.23,-1.53 2.70,-2.41 4.22,-2.63 5.73,-2.86 7.51,-2.52 9.28,-2.18 9.39,-2.16 9.49,-2.13 9.59,-2.08 9.68,-2.03 9.75,-1.95 9.82,-1.87 9.86,-1.77 9.90,-1.67 9.91,-1.57 9.92,-1.46 9.89,-1.36 9.86,-1.26 9.81,-1.17 9.75,-1.08 9.66,-1.01 9.58,-0.95 9.48,-0.91 9.38,-0.87 9.28,-0.87 9.17,-0.87 9.07,-0.90 8.97,-0.93 8.88,-1.00 8.79,-1.06 8.73,-1.15 8.67,-1.23 8.64,-1.33 8.61,-1.44 8.61,-1.54 8.62,-1.65 8.66,-1.75 8.69,-1.85 8.76,-1.93 8.83,-2.01 8.92,-2.07 9.01,-2.13 9.11,-2.15 9.21,-2.17 9.32,-2.17 9.43,-2.16 9.52,-2.11 9.62,-2.07 9.70,-2.00 9.78,-1.93 9.83,-1.83 9.88,-1.74 9.90,-1.64 9.92,-1.53 9.90,-1.43 9.89,-1.32 9.84,-1.23 9.79,-1.13 9.72,-1.06 9.64,-0.98 9.55,-0.94 9.45,-0.89 9.35,-0.88 9.24,-0.86 9.24,-0.86 9.24,-0.86 7.69,-0.64 6.15,-0.41 4.88,-0.15 3.61,0.11 1.92,0.38 0.23,0.65 0.15,0.67 0.07,0.69 -0.00,0.69 -0.09,0.69 -0.17,0.67 -0.25,0.64 -0.33,0.60 -0.40,0.56 -0.46,0.51 -0.52,0.45 -0.57,0.38 -0.62,0.31 -0.65,0.23 -0.68,0.15 -0.68,0.07 -0.69,-0.00 -0.68,-0.09 -0.67,-0.17 -0.64,-0.25 -0.61,-0.33 -0.56,-0.40 -0.51,-0.47 -0.45,-0.52 -0.38,-0.58 -0.31,-0.61 -0.23,-0.65 -0.23,-0.65 L -0.23,-0.65 Z"/></g><g transform="translate(255 72.5) rotate(0 2.5 9.75)" stroke="none"><path fill="#1e1e1e" d="M -0.11,-0.92 Q -0.11,-0.92 1.01,-1.25 2.13,-1.58 3.24,-1.64 4.35,-1.71 5.40,-1.74 6.44,-1.77 7.20,-1.77 7.96,-1.78 8.52,-1.59 9.07,-1.39 9.52,-1.06 9.97,-0.73 10.29,0.07 10.60,0.87 10.53,2.58 10.45,4.29 10.12,6.31 9.79,8.33 9.51,10.02 9.22,11.71 8.82,13.62 8.41,15.52 8.09,16.77 7.77,18.02 7.64,18.69 7.51,19.35 7.45,19.51 7.39,19.66 7.30,19.79 7.20,19.93 7.08,20.04 6.96,20.14 6.81,20.22 6.66,20.29 6.50,20.33 6.34,20.37 6.18,20.37 6.01,20.36 5.86,20.32 5.70,20.28 5.55,20.20 5.41,20.13 5.28,20.02 5.16,19.91 5.07,19.77 4.98,19.63 4.92,19.48 4.87,19.32 4.85,19.16 4.83,19.00 4.85,18.83 4.87,18.67 4.18,18.44 3.49,18.21 2.96,17.32 2.43,16.43 1.78,15.19 1.13,13.96 0.47,12.93 -0.19,11.89 -0.95,10.35 -1.70,8.81 -2.36,7.83 -3.03,6.85 -3.61,5.95 -4.20,5.05 -3.14,2.89 -2.07,0.74 -1.98,0.69 -1.89,0.64 -1.78,0.63 -1.68,0.61 -1.57,0.63 -1.47,0.64 -1.37,0.69 -1.28,0.74 -1.21,0.82 -1.13,0.90 -1.09,1.00 -1.05,1.09 -1.03,1.20 -1.02,1.30 -1.05,1.41 -1.07,1.51 -1.12,1.60 -1.18,1.69 -1.26,1.76 -1.34,1.83 -1.44,1.87 -1.54,1.91 -1.65,1.91 -1.75,1.92 -1.85,1.89 -1.96,1.86 -2.04,1.80 -2.13,1.74 -2.20,1.66 -2.26,1.57 -2.29,1.47 -2.33,1.37 -2.33,1.26 -2.33,1.16 -2.29,1.06 -2.26,0.96 -2.19,0.87 -2.13,0.79 -2.04,0.73 -1.95,0.67 -1.85,0.64 -1.75,0.61 -1.64,0.62 -1.54,0.63 -1.44,0.66 -1.34,0.70 -1.26,0.77 -1.18,0.84 -1.12,0.93 -1.07,1.03 -1.05,1.13 -1.02,1.23 -1.03,1.34 -1.05,1.44 -1.09,1.54 -1.14,1.64 -1.21,1.71 -1.28,1.79 -1.28,1.79 -1.28,1.79 -1.65,2.67 -2.01,3.55 -1.39,4.40 -0.77,5.26 0.04,6.40 0.86,7.53 1.56,8.92 2.26,10.31 2.99,11.46 3.73,12.60 4.34,13.78 4.96,14.96 5.37,15.69 5.79,16.42 6.12,16.87 6.45,17.32 6.98,18.34 7.51,19.35 7.45,19.51 7.39,19.66 7.30,19.79 7.20,19.93 7.08,20.04 6.96,20.14 6.81,20.22 6.66,20.29 6.50,20.33 6.34,20.37 6.18,20.37 6.01,20.36 5.86,20.32 5.70,20.28 5.55,20.20 5.41,20.13 5.28,20.02 5.16,19.91 5.07,19.77 4.98,19.63 4.92,19.48 4.87,19.32 4.85,19.16 4.83,19.00 4.85,18.83 4.87,18.67 5.02,18.01 5.16,17.35 5.47,16.15 5.79,14.95 6.19,13.11 6.60,11.27 6.89,9.58 7.17,7.89 7.50,6.01 7.82,4.12 7.86,2.47 7.89,0.81 7.20,0.83 6.51,0.84 5.50,0.87 4.50,0.89 3.48,0.95 2.46,1.00 1.28,0.96 0.11,0.92 0.00,0.92 -0.10,0.92 -0.21,0.89 -0.32,0.87 -0.42,0.81 -0.52,0.76 -0.61,0.69 -0.69,0.61 -0.75,0.52 -0.82,0.43 -0.86,0.33 -0.90,0.22 -0.91,0.11 -0.93,0.00 -0.91,-0.10 -0.90,-0.21 -0.86,-0.32 -0.82,-0.42 -0.76,-0.52 -0.69,-0.61 -0.61,-0.68 -0.53,-0.76 -0.43,-0.81 -0.33,-0.86 -0.22,-0.89 -0.11,-0.92 -0.11,-0.92 L -0.11,-0.92 Z"/></g><g transform="translate(271.5 88.5) rotate(0 4.75 -6.25)" stroke="none"><path fill="#1e1e1e" d="M -0.72,0.12 Q -0.72,0.12 -1.18,-0.69 -1.64,-1.50 -1.57,-2.76 -1.49,-4.02 -0.69,-5.98 0.10,-7.95 0.72,-9.29 1.33,-10.63 2.07,-11.84 2.81,-13.05 3.59,-13.72 4.38,-14.38 5.38,-14.51 6.39,-14.65 7.56,-13.84 8.74,-13.02 9.38,-11.80 10.02,-10.58 10.42,-9.17 10.81,-7.77 10.96,-6.39 11.10,-5.02 10.44,-2.29 9.79,0.42 9.76,0.53 9.73,0.63 9.67,0.71 9.61,0.80 9.52,0.86 9.44,0.93 9.33,0.96 9.23,0.99 9.13,0.99 9.02,0.99 8.92,0.95 8.82,0.92 8.74,0.85 8.65,0.79 8.59,0.70 8.54,0.61 8.51,0.51 8.48,0.41 8.49,0.30 8.50,0.19 8.54,0.10 8.58,0.00 8.65,-0.07 8.72,-0.15 8.81,-0.21 8.90,-0.26 9.01,-0.28 9.11,-0.30 9.21,-0.29 9.32,-0.28 9.42,-0.23 9.51,-0.18 9.59,-0.11 9.66,-0.04 9.71,0.05 9.76,0.14 9.78,0.25 9.79,0.35 9.77,0.46 9.76,0.56 9.70,0.65 9.65,0.75 9.58,0.82 9.50,0.89 9.40,0.94 9.30,0.98 9.20,0.99 9.09,1.00 8.99,0.97 8.88,0.95 8.79,0.89 8.70,0.84 8.64,0.76 8.57,0.67 8.53,0.58 8.49,0.48 8.49,0.37 8.48,0.26 8.48,0.26 8.48,0.26 8.47,-2.23 8.45,-4.72 8.30,-5.89 8.14,-7.05 7.84,-8.22 7.53,-9.40 7.21,-10.21 6.88,-11.01 6.01,-11.30 5.14,-11.58 4.50,-10.52 3.86,-9.46 3.26,-8.15 2.66,-6.85 1.95,-5.31 1.25,-3.76 1.16,-2.85 1.07,-1.94 0.89,-1.03 0.72,-0.12 0.72,-0.03 0.73,0.05 0.71,0.14 0.69,0.22 0.65,0.30 0.62,0.38 0.56,0.45 0.51,0.52 0.43,0.58 0.36,0.63 0.28,0.66 0.20,0.70 0.11,0.71 0.03,0.73 -0.05,0.72 -0.14,0.71 -0.22,0.69 -0.31,0.66 -0.38,0.61 -0.46,0.56 -0.52,0.50 -0.58,0.44 -0.62,0.36 -0.67,0.29 -0.69,0.20 -0.72,0.12 -0.72,0.12 L -0.72,0.12 Z"/></g><g transform="translate(252.5 96.5) rotate(0 19.5 -0.5)" stroke="none"><path fill="#1e1e1e" d="M 0,-0.81 Q 0,-0.81 1.86,-1.09 3.73,-1.36 8.10,-1.54 12.46,-1.72 15.77,-1.78 19.09,-1.85 21.75,-2.02 24.42,-2.19 26.88,-2.26 29.35,-2.34 31.11,-2.37 32.87,-2.40 34.20,-2.38 35.53,-2.37 37.26,-1.56 39.00,-0.75 39.08,-0.68 39.17,-0.61 39.22,-0.52 39.28,-0.43 39.31,-0.33 39.33,-0.23 39.32,-0.12 39.32,-0.02 39.27,0.07 39.23,0.17 39.16,0.25 39.09,0.33 39.00,0.38 38.90,0.43 38.80,0.45 38.70,0.47 38.59,0.46 38.49,0.44 38.39,0.40 38.29,0.35 38.22,0.27 38.14,0.20 38.10,0.10 38.05,0.01 38.04,-0.09 38.02,-0.19 38.04,-0.30 38.06,-0.40 38.11,-0.49 38.17,-0.59 38.25,-0.66 38.32,-0.73 38.42,-0.77 38.52,-0.81 38.63,-0.82 38.73,-0.83 38.83,-0.80 38.94,-0.78 39.03,-0.72 39.12,-0.66 39.18,-0.58 39.25,-0.50 39.29,-0.40 39.32,-0.30 39.33,-0.19 39.33,-0.09 39.30,0.01 39.27,0.11 39.20,0.19 39.14,0.28 39.06,0.34 38.97,0.40 38.87,0.44 38.77,0.47 38.66,0.46 38.55,0.46 38.45,0.42 38.35,0.39 38.35,0.39 38.35,0.39 36.96,0.40 35.56,0.40 34.24,0.45 32.92,0.49 31.18,0.52 29.43,0.55 27.01,0.62 24.60,0.69 21.87,0.86 19.14,1.03 15.85,1.09 12.56,1.14 8.14,1.25 3.73,1.36 1.86,1.09 0,0.81 -0.09,0.80 -0.19,0.79 -0.28,0.75 -0.37,0.72 -0.45,0.66 -0.54,0.60 -0.60,0.53 -0.67,0.46 -0.71,0.37 -0.76,0.28 -0.78,0.19 -0.80,0.09 -0.80,-0.00 -0.80,-0.09 -0.78,-0.19 -0.76,-0.28 -0.71,-0.37 -0.67,-0.46 -0.60,-0.53 -0.54,-0.60 -0.45,-0.66 -0.37,-0.72 -0.28,-0.75 -0.19,-0.79 -0.09,-0.80 0.00,-0.81 0.00,-0.81 L 0,-0.81 Z"/></g><g transform="translate(250 124) rotate(0 1 -12.75)" stroke="none"><path fill="#1e1e1e" d="M -0.77,-0.06 Q -0.77,-0.06 -0.96,-1.81 -1.15,-3.56 -0.81,-6.90 -0.48,-10.24 -0.19,-13.23 0.09,-16.22 0.22,-18.18 0.35,-20.14 0.84,-22.59 1.32,-25.04 1.34,-25.15 1.37,-25.25 1.42,-25.35 1.47,-25.44 1.55,-25.51 1.63,-25.58 1.73,-25.62 1.82,-25.66 1.93,-25.67 2.04,-25.68 2.14,-25.65 2.24,-25.63 2.33,-25.57 2.42,-25.51 2.49,-25.43 2.55,-25.35 2.59,-25.25 2.63,-25.15 2.63,-25.04 2.63,-24.93 2.60,-24.83 2.57,-24.73 2.51,-24.65 2.44,-24.56 2.36,-24.50 2.27,-24.44 2.17,-24.41 2.07,-24.37 1.96,-24.38 1.86,-24.38 1.76,-24.42 1.66,-24.45 1.57,-24.52 1.49,-24.59 1.43,-24.68 1.38,-24.77 1.35,-24.87 1.33,-24.97 1.34,-25.08 1.34,-25.19 1.39,-25.28 1.43,-25.38 1.50,-25.46 1.57,-25.54 1.66,-25.59 1.76,-25.64 1.86,-25.66 1.97,-25.68 2.07,-25.67 2.18,-25.65 2.27,-25.60 2.37,-25.56 2.44,-25.48 2.52,-25.41 2.56,-25.31 2.61,-25.22 2.62,-25.11 2.64,-25.01 2.64,-25.01 2.64,-25.01 2.95,-22.48 3.27,-19.96 3.16,-17.94 3.04,-15.93 2.74,-12.93 2.45,-9.93 2.08,-6.63 1.72,-3.33 1.24,-1.63 0.77,0.06 0.75,0.15 0.73,0.24 0.69,0.33 0.65,0.41 0.59,0.48 0.53,0.56 0.46,0.61 0.38,0.67 0.29,0.70 0.21,0.74 0.12,0.76 0.02,0.77 -0.06,0.76 -0.15,0.75 -0.24,0.72 -0.33,0.69 -0.41,0.64 -0.49,0.59 -0.55,0.53 -0.62,0.46 -0.66,0.38 -0.71,0.30 -0.73,0.21 -0.76,0.12 -0.76,0.02 -0.77,-0.06 -0.77,-0.06 L -0.77,-0.06 Z"/></g><g transform="translate(255.5 124.5) rotate(0 0.5 -12.5)" stroke="none"><path fill="#1e1e1e" d="M -0.80,0.13 Q -0.80,0.13 -1.20,-0.68 -1.59,-1.50 -1.70,-2.95 -1.81,-4.40 -1.85,-6.01 -1.90,-7.62 -1.63,-11.10 -1.36,-14.58 -1.10,-16.77 -0.83,-18.97 -0.04,-21.79 0.73,-24.61 0.77,-24.71 0.81,-24.81 0.88,-24.89 0.95,-24.97 1.04,-25.02 1.14,-25.08 1.24,-25.10 1.34,-25.12 1.45,-25.11 1.55,-25.10 1.65,-25.05 1.75,-25.01 1.82,-24.93 1.90,-24.86 1.95,-24.77 2.00,-24.67 2.02,-24.57 2.03,-24.46 2.01,-24.36 2.00,-24.25 1.95,-24.16 1.90,-24.07 1.82,-23.99 1.74,-23.92 1.64,-23.88 1.55,-23.83 1.44,-23.82 1.34,-23.81 1.23,-23.84 1.13,-23.86 1.04,-23.91 0.95,-23.97 0.88,-24.05 0.81,-24.13 0.77,-24.23 0.73,-24.33 0.73,-24.44 0.72,-24.54 0.75,-24.64 0.78,-24.75 0.84,-24.83 0.90,-24.92 0.99,-24.99 1.07,-25.05 1.17,-25.08 1.27,-25.12 1.38,-25.11 1.49,-25.11 1.59,-25.08 1.69,-25.04 1.77,-24.98 1.85,-24.92 1.91,-24.83 1.97,-24.74 2.00,-24.64 2.03,-24.53 2.02,-24.43 2.02,-24.32 2.02,-24.32 2.02,-24.32 2.04,-21.47 2.06,-18.62 1.80,-16.48 1.55,-14.34 1.26,-11.00 0.98,-7.67 0.98,-6.10 0.99,-4.53 1.00,-3.23 1.02,-1.94 0.91,-1.03 0.80,-0.13 0.80,-0.03 0.81,0.06 0.79,0.15 0.77,0.25 0.73,0.34 0.69,0.43 0.62,0.50 0.56,0.58 0.48,0.64 0.41,0.70 0.32,0.74 0.22,0.78 0.13,0.79 0.03,0.81 -0.06,0.80 -0.15,0.79 -0.25,0.76 -0.34,0.73 -0.42,0.68 -0.51,0.63 -0.58,0.56 -0.64,0.49 -0.69,0.40 -0.74,0.32 -0.77,0.22 -0.80,0.13 -0.80,0.13 L -0.80,0.13 Z"/></g><g transform="translate(262.5 105.5) rotate(0 6.5 5.25)" stroke="none"><path fill="#1e1e1e" d="M -0.10,-0.91 Q -0.10,-0.91 1.16,-1.29 2.43,-1.66 3.66,-1.86 4.90,-2.06 6.90,-2.30 8.91,-2.54 9.91,-2.64 10.90,-2.74 11.54,-2.76 12.18,-2.79 12.94,-2.22 13.71,-1.66 13.83,-0.47 13.95,0.71 13.79,2.01 13.62,3.32 13.41,5.00 13.21,6.69 12.83,9.42 12.46,12.16 12.30,13.59 12.14,15.01 12.07,15.77 12.01,16.53 11.97,16.70 11.93,16.86 11.85,17.02 11.77,17.17 11.66,17.30 11.55,17.43 11.41,17.52 11.27,17.62 11.11,17.69 10.95,17.75 10.78,17.77 10.61,17.79 10.44,17.77 10.27,17.75 10.11,17.70 9.95,17.64 9.81,17.54 9.67,17.45 9.55,17.32 9.44,17.19 9.36,17.04 9.27,16.89 9.23,16.72 9.19,16.56 9.19,16.39 9.19,16.22 8.98,15.57 8.77,14.92 8.43,13.80 8.09,12.68 6.80,9.35 5.52,6.03 4.55,3.28 3.57,0.53 3.19,-1.13 2.81,-2.80 2.78,-3.95 2.74,-5.09 2.72,-5.22 2.70,-5.34 2.72,-5.47 2.73,-5.59 2.77,-5.71 2.82,-5.83 2.89,-5.94 2.96,-6.04 3.05,-6.13 3.15,-6.22 3.26,-6.28 3.37,-6.34 3.49,-6.37 3.61,-6.40 3.74,-6.40 3.87,-6.41 3.99,-6.38 4.12,-6.35 4.23,-6.29 4.34,-6.23 4.44,-6.15 4.54,-6.07 4.61,-5.97 4.68,-5.86 4.73,-5.74 4.78,-5.63 3.45,-3.76 2.13,-1.90 2.06,-1.82 1.98,-1.75 1.89,-1.70 1.79,-1.65 1.69,-1.63 1.58,-1.62 1.48,-1.64 1.37,-1.66 1.28,-1.71 1.19,-1.76 1.12,-1.84 1.04,-1.91 1.00,-2.01 0.96,-2.11 0.95,-2.21 0.94,-2.32 0.96,-2.42 0.99,-2.53 1.04,-2.62 1.10,-2.71 1.18,-2.77 1.26,-2.84 1.36,-2.88 1.46,-2.92 1.57,-2.92 1.68,-2.93 1.78,-2.90 1.88,-2.87 1.97,-2.80 2.05,-2.74 2.12,-2.66 2.18,-2.57 2.21,-2.47 2.24,-2.37 2.24,-2.26 2.24,-2.16 2.20,-2.06 2.17,-1.96 2.10,-1.87 2.04,-1.79 1.95,-1.73 1.86,-1.67 1.76,-1.65 1.65,-1.62 1.55,-1.63 1.44,-1.64 1.34,-1.68 1.25,-1.72 1.17,-1.79 1.09,-1.86 1.03,-1.95 0.98,-2.04 0.96,-2.15 0.94,-2.25 0.95,-2.35 0.96,-2.46 1.01,-2.56 1.06,-2.65 1.06,-2.65 1.06,-2.65 1.90,-3.87 2.74,-5.09 2.72,-5.22 2.70,-5.34 2.72,-5.47 2.73,-5.59 2.77,-5.71 2.82,-5.83 2.89,-5.94 2.96,-6.04 3.05,-6.13 3.15,-6.22 3.26,-6.28 3.37,-6.34 3.49,-6.37 3.61,-6.40 3.74,-6.40 3.87,-6.41 3.99,-6.38 4.12,-6.35 4.23,-6.29 4.34,-6.23 4.44,-6.15 4.54,-6.07 4.61,-5.97 4.68,-5.86 4.73,-5.74 4.78,-5.63 5.09,-4.55 5.41,-3.48 5.87,-1.97 6.33,-0.46 7.32,2.24 8.31,4.95 9.63,8.39 10.95,11.82 11.32,13.08 11.68,14.33 11.84,15.43 12.01,16.53 11.97,16.70 11.93,16.86 11.85,17.02 11.77,17.17 11.66,17.30 11.55,17.43 11.41,17.52 11.27,17.62 11.11,17.69 10.95,17.75 10.78,17.77 10.61,17.79 10.44,17.77 10.27,17.75 10.11,17.70 9.95,17.64 9.81,17.54 9.67,17.45 9.55,17.32 9.44,17.19 9.36,17.04 9.27,16.89 9.23,16.72 9.19,16.56 9.19,16.39 9.19,16.22 9.25,15.46 9.32,14.70 9.49,13.23 9.65,11.77 10.03,9.05 10.41,6.33 10.63,4.65 10.85,2.97 11.01,1.50 11.18,0.03 10.21,0.13 9.23,0.22 7.29,0.45 5.34,0.67 4.04,0.88 2.74,1.08 1.42,1.00 0.10,0.91 -0.00,0.91 -0.12,0.91 -0.22,0.88 -0.33,0.85 -0.43,0.80 -0.53,0.75 -0.61,0.67 -0.69,0.60 -0.75,0.51 -0.82,0.42 -0.86,0.31 -0.89,0.21 -0.91,0.10 -0.92,-0.00 -0.90,-0.11 -0.89,-0.23 -0.85,-0.33 -0.81,-0.43 -0.74,-0.52 -0.68,-0.61 -0.60,-0.69 -0.51,-0.76 -0.41,-0.81 -0.31,-0.86 -0.21,-0.89 -0.10,-0.91 -0.10,-0.91 L -0.10,-0.91 Z"/></g><g transform="translate(279 121.5) rotate(0 5.25 -7)" stroke="none"><path fill="#1e1e1e" d="M -0.84,-0.28 Q -0.84,-0.28 -0.66,-1.66 -0.49,-3.04 -0.19,-4.26 0.11,-5.48 0.38,-6.98 0.65,-8.47 1.07,-9.92 1.50,-11.38 1.82,-12.40 2.14,-13.43 2.43,-14.19 2.73,-14.96 3.28,-15.66 3.83,-16.36 4.84,-16.56 5.85,-16.77 6.75,-16.22 7.66,-15.68 8.64,-13.85 9.62,-12.02 10.14,-10.53 10.66,-9.04 11.02,-7.51 11.39,-5.99 11.56,-4.71 11.72,-3.43 11.63,-2.35 11.54,-1.26 11.10,0.22 10.66,1.70 10.64,1.81 10.62,1.91 10.57,2.00 10.52,2.10 10.44,2.17 10.36,2.24 10.26,2.28 10.16,2.32 10.06,2.33 9.95,2.34 9.85,2.31 9.74,2.29 9.65,2.23 9.56,2.17 9.50,2.09 9.43,2.00 9.40,1.90 9.36,1.81 9.36,1.70 9.35,1.59 9.39,1.49 9.42,1.39 9.48,1.30 9.54,1.22 9.63,1.16 9.71,1.09 9.82,1.06 9.92,1.03 10.02,1.04 10.13,1.04 10.23,1.08 10.33,1.11 10.41,1.18 10.49,1.25 10.55,1.34 10.61,1.42 10.63,1.53 10.66,1.63 10.65,1.74 10.64,1.84 10.60,1.94 10.56,2.04 10.49,2.12 10.41,2.20 10.32,2.25 10.23,2.30 10.12,2.32 10.02,2.34 9.92,2.32 9.81,2.31 9.71,2.26 9.62,2.22 9.54,2.14 9.47,2.06 9.42,1.97 9.38,1.87 9.36,1.77 9.35,1.66 9.35,1.66 9.35,1.66 9.02,0.07 8.69,-1.51 8.76,-2.30 8.83,-3.09 8.70,-4.20 8.57,-5.32 8.24,-6.71 7.91,-8.10 7.47,-9.42 7.02,-10.74 6.23,-12.32 5.44,-13.90 5.18,-13.23 4.92,-12.56 4.60,-11.55 4.29,-10.55 3.90,-9.25 3.51,-7.95 3.21,-6.35 2.91,-4.76 2.56,-3.44 2.22,-2.13 1.53,-0.92 0.84,0.28 0.79,0.37 0.74,0.47 0.68,0.55 0.61,0.63 0.52,0.70 0.44,0.76 0.34,0.80 0.24,0.85 0.14,0.86 0.03,0.88 -0.07,0.87 -0.17,0.86 -0.27,0.83 -0.37,0.80 -0.46,0.74 -0.56,0.68 -0.63,0.60 -0.70,0.53 -0.76,0.44 -0.81,0.34 -0.84,0.24 -0.87,0.14 -0.87,0.03 -0.88,-0.07 -0.86,-0.17 -0.84,-0.28 -0.84,-0.28 L -0.84,-0.28 Z"/></g><g transform="translate(295 123.5) rotate(0 0.25 -12.25)" stroke="none"><path fill="#1e1e1e" d="M -0.83,0 Q -0.83,0 -1.15,-1.43 -1.47,-2.87 -1.49,-5.06 -1.52,-7.25 -1.52,-9.48 -1.52,-11.71 -1.38,-14.28 -1.24,-16.85 -1.16,-18.62 -1.07,-20.40 -0.62,-22.27 -0.16,-24.14 -0.14,-24.24 -0.12,-24.35 -0.07,-24.44 -0.02,-24.53 0.05,-24.60 0.13,-24.67 0.23,-24.72 0.32,-24.76 0.43,-24.77 0.54,-24.78 0.64,-24.75 0.74,-24.73 0.83,-24.67 0.92,-24.62 0.99,-24.53 1.06,-24.45 1.09,-24.35 1.13,-24.25 1.14,-24.15 1.14,-24.04 1.11,-23.94 1.08,-23.84 1.02,-23.75 0.96,-23.66 0.87,-23.60 0.78,-23.54 0.68,-23.51 0.58,-23.47 0.48,-23.48 0.37,-23.48 0.27,-23.51 0.17,-23.55 0.09,-23.62 0.00,-23.68 -0.05,-23.77 -0.10,-23.86 -0.13,-23.96 -0.16,-24.07 -0.15,-24.17 -0.14,-24.28 -0.10,-24.38 -0.06,-24.47 0.00,-24.55 0.07,-24.63 0.16,-24.69 0.26,-24.74 0.36,-24.76 0.46,-24.78 0.57,-24.77 0.68,-24.75 0.77,-24.71 0.87,-24.66 0.94,-24.59 1.02,-24.51 1.07,-24.42 1.11,-24.32 1.13,-24.22 1.14,-24.11 1.14,-24.11 1.14,-24.11 1.52,-22.20 1.89,-20.29 1.85,-18.48 1.81,-16.67 1.67,-14.19 1.52,-11.71 1.52,-9.48 1.52,-7.25 1.49,-5.06 1.47,-2.87 1.15,-1.43 0.83,0 0.81,0.09 0.80,0.19 0.77,0.29 0.73,0.38 0.67,0.46 0.62,0.55 0.54,0.61 0.47,0.68 0.38,0.73 0.29,0.77 0.19,0.80 0.10,0.82 -0.00,0.82 -0.10,0.82 -0.19,0.80 -0.29,0.77 -0.38,0.73 -0.47,0.68 -0.54,0.61 -0.62,0.55 -0.67,0.46 -0.73,0.38 -0.77,0.29 -0.80,0.19 -0.81,0.09 -0.83,-0.00 -0.83,-0.00 L -0.83,0 Z"/></g><g transform="translate(298.5 128) rotate(0 0.25 -14)" stroke="none"><path fill="#1e1e1e" d="M -0.91,0 Q -0.91,0 -1.17,-1.00 -1.43,-2.01 -1.45,-3.30 -1.48,-4.59 -1.15,-11.33 -0.82,-18.07 -0.71,-22.12 -0.60,-26.18 -0.59,-26.28 -0.57,-26.39 -0.52,-26.49 -0.48,-26.58 -0.40,-26.66 -0.33,-26.73 -0.23,-26.78 -0.14,-26.83 -0.03,-26.84 0.06,-26.85 0.17,-26.83 0.27,-26.81 0.36,-26.76 0.46,-26.71 0.53,-26.63 0.60,-26.55 0.64,-26.46 0.68,-26.36 0.69,-26.25 0.70,-26.15 0.68,-26.04 0.65,-25.94 0.59,-25.85 0.54,-25.76 0.45,-25.69 0.37,-25.63 0.27,-25.59 0.17,-25.55 0.07,-25.55 -0.03,-25.55 -0.13,-25.58 -0.23,-25.61 -0.32,-25.67 -0.41,-25.73 -0.47,-25.82 -0.53,-25.91 -0.56,-26.01 -0.59,-26.11 -0.59,-26.21 -0.59,-26.32 -0.55,-26.42 -0.52,-26.52 -0.45,-26.60 -0.38,-26.69 -0.29,-26.74 -0.20,-26.80 -0.10,-26.83 -0.00,-26.85 0.10,-26.84 0.20,-26.84 0.30,-26.79 0.40,-26.75 0.48,-26.68 0.56,-26.61 0.61,-26.52 0.66,-26.43 0.68,-26.32 0.70,-26.22 0.70,-26.22 0.70,-26.22 1.05,-22.12 1.39,-18.02 1.44,-11.31 1.48,-4.59 1.45,-3.30 1.43,-2.01 1.17,-1.00 0.91,0 0.90,0.10 0.89,0.21 0.85,0.32 0.81,0.42 0.75,0.51 0.68,0.60 0.60,0.68 0.52,0.75 0.42,0.80 0.32,0.85 0.21,0.88 0.11,0.91 -0.00,0.91 -0.11,0.91 -0.21,0.88 -0.32,0.85 -0.42,0.80 -0.52,0.75 -0.60,0.68 -0.68,0.60 -0.75,0.51 -0.81,0.42 -0.85,0.32 -0.89,0.21 -0.90,0.10 -0.91,-0.00 -0.91,-0.00 L -0.91,0 Z"/></g><g transform="translate(83 144) rotate(0 20 -17.75)" stroke="none"><path fill="#2f9e44" d="M -0.55,-0.55 Q -0.55,-0.55 -0.18,-1.33 0.19,-2.10 0.71,-2.64 1.24,-3.18 2.08,-3.89 2.93,-4.60 3.66,-5.29 4.40,-5.98 5.14,-6.71 5.88,-7.44 6.95,-8.36 8.02,-9.28 9.11,-10.00 10.20,-10.72 11.49,-11.58 12.78,-12.44 14.24,-13.26 15.70,-14.08 17.55,-15.27 19.41,-16.46 20.73,-17.50 22.04,-18.55 22.89,-19.28 23.74,-20.01 24.38,-20.60 25.02,-21.19 25.82,-22.11 26.62,-23.03 27.08,-23.68 27.55,-24.33 28.30,-25.03 29.04,-25.73 29.59,-26.25 30.14,-26.78 30.66,-27.29 31.18,-27.80 31.69,-28.12 32.19,-28.45 32.78,-28.98 33.37,-29.51 34.09,-30.22 34.82,-30.93 35.63,-31.79 36.43,-32.65 35.52,-32.41 34.60,-32.18 33.84,-32.26 33.07,-32.34 32.30,-32.55 31.54,-32.76 30.65,-33.08 29.76,-33.39 29.01,-33.75 28.26,-34.11 27.96,-34.05 27.66,-33.98 27.48,-34.03 27.30,-34.07 27.14,-34.16 26.98,-34.24 26.85,-34.37 26.72,-34.49 26.61,-34.64 26.51,-34.79 26.45,-34.96 26.39,-35.13 26.37,-35.31 26.35,-35.49 26.37,-35.67 26.40,-35.85 26.46,-36.02 26.53,-36.19 26.63,-36.34 26.74,-36.49 26.88,-36.61 27.02,-36.73 27.18,-36.81 27.34,-36.89 27.52,-36.93 27.69,-36.97 27.87,-36.97 28.06,-36.97 28.58,-36.68 29.11,-36.39 29.99,-36.07 30.86,-35.75 31.51,-35.49 32.16,-35.23 33.29,-35.02 34.42,-34.82 35.31,-34.55 36.21,-34.29 36.75,-34.20 37.30,-34.12 38.24,-33.84 39.19,-33.57 40.16,-32.86 41.13,-32.15 40.97,-30.82 40.82,-29.49 40.27,-27.89 39.72,-26.28 39.20,-24.89 38.68,-23.49 38.00,-22.12 37.32,-20.74 36.26,-19.15 35.20,-17.56 35.15,-17.47 35.11,-17.37 35.03,-17.29 34.96,-17.22 34.87,-17.17 34.77,-17.12 34.67,-17.10 34.56,-17.08 34.46,-17.10 34.35,-17.12 34.26,-17.17 34.16,-17.22 34.09,-17.30 34.02,-17.38 33.98,-17.47 33.93,-17.57 33.92,-17.67 33.91,-17.78 33.93,-17.88 33.96,-17.99 34.01,-18.08 34.07,-18.17 34.15,-18.24 34.23,-18.31 34.33,-18.34 34.43,-18.38 34.53,-18.39 34.64,-18.39 34.74,-18.36 34.84,-18.34 34.93,-18.28 35.02,-18.22 35.08,-18.13 35.15,-18.05 35.18,-17.94 35.21,-17.84 35.21,-17.74 35.21,-17.63 35.18,-17.53 35.14,-17.43 35.08,-17.35 35.01,-17.26 34.93,-17.20 34.84,-17.14 34.73,-17.12 34.63,-17.09 34.53,-17.09 34.42,-17.10 34.32,-17.14 34.22,-17.18 34.14,-17.25 34.06,-17.32 34.01,-17.41 33.95,-17.50 33.93,-17.61 33.91,-17.71 33.92,-17.81 33.93,-17.92 33.93,-17.92 33.93,-17.92 34.26,-20.01 34.59,-22.10 35.21,-23.33 35.83,-24.56 36.34,-25.92 36.85,-27.27 37.37,-28.76 37.88,-30.25 38.49,-30.50 39.09,-30.76 38.47,-30.83 37.85,-30.90 37.33,-31.04 36.81,-31.18 36.08,-31.31 35.35,-31.44 34.60,-31.67 33.85,-31.90 32.45,-32.19 31.06,-32.47 30.52,-32.70 29.97,-32.92 28.81,-33.45 27.66,-33.98 27.48,-34.03 27.30,-34.07 27.14,-34.16 26.99,-34.24 26.85,-34.37 26.72,-34.49 26.61,-34.64 26.51,-34.79 26.45,-34.96 26.39,-35.13 26.37,-35.31 26.35,-35.49 26.37,-35.67 26.40,-35.85 26.46,-36.02 26.53,-36.19 26.63,-36.34 26.74,-36.49 26.88,-36.61 27.01,-36.73 27.18,-36.81 27.34,-36.89 27.52,-36.93 27.69,-36.97 27.87,-36.97 28.06,-36.97 28.30,-36.95 28.54,-36.94 29.28,-36.62 30.02,-36.31 30.60,-36.19 31.18,-36.07 31.77,-35.88 32.37,-35.68 32.89,-35.52 33.42,-35.36 34.35,-35.26 35.28,-35.15 36.32,-34.91 37.35,-34.67 38.27,-34.25 39.20,-33.84 39.37,-33.33 39.54,-32.81 39.28,-31.90 39.03,-30.98 38.38,-30.46 37.73,-29.94 37.32,-29.38 36.92,-28.82 36.16,-28.08 35.40,-27.34 34.93,-26.91 34.47,-26.48 33.86,-26.07 33.25,-25.66 32.72,-25.15 32.19,-24.63 31.61,-24.08 31.04,-23.53 30.49,-23.06 29.94,-22.58 29.39,-21.83 28.85,-21.08 27.94,-20.04 27.02,-19.01 26.34,-18.39 25.66,-17.77 24.77,-17.00 23.87,-16.23 22.42,-15.11 20.98,-13.98 19.05,-12.77 17.12,-11.56 15.75,-10.79 14.38,-10.02 13.08,-9.16 11.78,-8.30 10.83,-7.70 9.89,-7.09 8.87,-6.24 7.86,-5.39 7.09,-4.65 6.31,-3.91 5.50,-3.18 4.69,-2.45 3.94,-1.84 3.18,-1.24 2.64,-0.71 2.10,-0.19 1.33,0.18 0.55,0.55 0.48,0.61 0.40,0.67 0.32,0.71 0.23,0.75 0.14,0.77 0.04,0.78 -0.04,0.78 -0.14,0.77 -0.23,0.74 -0.32,0.71 -0.40,0.67 -0.48,0.62 -0.55,0.55 -0.62,0.48 -0.67,0.40 -0.71,0.32 -0.74,0.23 -0.77,0.14 -0.78,0.04 -0.78,-0.04 -0.77,-0.14 -0.75,-0.23 -0.71,-0.32 -0.67,-0.40 -0.61,-0.48 -0.55,-0.55 -0.55,-0.55 L -0.55,-0.55 Z"/></g><g transform="translate(125 125.5) rotate(0 4.25 4)" stroke="none"><path fill="#2f9e44" d="M 0.69,-0.57 Q 0.69,-0.57 1.62,0.10 2.56,0.78 3.22,1.80 3.88,2.81 4.48,4.18 5.08,5.54 5.46,6.53 5.84,7.52 6.03,8.14 6.21,8.76 6.28,9.14 6.35,9.52 6.37,9.70 6.40,9.88 6.39,10.06 6.37,10.24 6.31,10.41 6.26,10.59 6.16,10.74 6.06,10.89 5.93,11.02 5.80,11.14 5.64,11.23 5.48,11.32 5.31,11.37 5.13,11.42 4.95,11.43 4.77,11.44 4.59,11.40 4.41,11.36 4.25,11.28 4.08,11.21 3.94,11.09 3.80,10.97 3.69,10.83 3.59,10.68 3.52,10.52 3.44,10.35 3.78,9.58 4.12,8.81 4.33,7.20 4.54,5.59 4.97,4.27 5.40,2.95 6.40,0.84 7.41,-1.25 7.44,-1.32 7.47,-1.40 7.52,-1.46 7.57,-1.52 7.64,-1.57 7.70,-1.62 7.77,-1.65 7.84,-1.68 7.92,-1.69 8.00,-1.71 8.08,-1.70 8.16,-1.69 8.23,-1.67 8.31,-1.65 8.38,-1.60 8.44,-1.56 8.50,-1.51 8.55,-1.45 8.59,-1.38 8.63,-1.31 8.66,-1.24 8.68,-1.16 8.68,-1.08 8.69,-1.00 8.67,-0.93 8.66,-0.85 8.54,-0.69 8.43,-0.53 8.34,-0.48 8.24,-0.43 8.14,-0.41 8.03,-0.39 7.93,-0.41 7.82,-0.43 7.73,-0.48 7.64,-0.53 7.56,-0.60 7.49,-0.68 7.44,-0.78 7.40,-0.87 7.39,-0.98 7.38,-1.08 7.40,-1.19 7.42,-1.29 7.48,-1.38 7.53,-1.47 7.61,-1.54 7.69,-1.61 7.79,-1.65 7.89,-1.69 8.00,-1.70 8.10,-1.70 8.20,-1.68 8.31,-1.65 8.39,-1.59 8.48,-1.53 8.55,-1.44 8.61,-1.36 8.65,-1.26 8.68,-1.16 8.68,-1.05 8.68,-0.95 8.65,-0.84 8.61,-0.74 8.55,-0.66 8.49,-0.57 8.40,-0.51 8.31,-0.45 8.21,-0.43 8.10,-0.40 8.00,-0.40 7.89,-0.41 7.79,-0.45 7.70,-0.49 7.61,-0.56 7.53,-0.62 7.48,-0.71 7.42,-0.81 7.40,-0.91 7.38,-1.01 7.39,-1.12 7.40,-1.22 7.44,-1.32 7.49,-1.42 7.45,-1.33 7.41,-1.25 7.44,-1.32 7.47,-1.40 7.52,-1.46 7.57,-1.52 7.64,-1.57 7.70,-1.62 7.77,-1.65 7.84,-1.68 7.92,-1.69 8.00,-1.71 8.08,-1.70 8.16,-1.69 8.23,-1.67 8.31,-1.65 8.38,-1.60 8.44,-1.56 8.50,-1.51 8.55,-1.45 8.59,-1.38 8.63,-1.31 8.66,-1.24 8.68,-1.16 8.68,-1.08 8.69,-1.00 8.67,-0.93 8.66,-0.85 8.50,1.52 8.34,3.90 7.92,5.20 7.50,6.49 7.21,7.39 6.92,8.29 6.63,8.90 6.35,9.52 6.37,9.70 6.40,9.88 6.39,10.06 6.37,10.24 6.31,10.41 6.26,10.59 6.16,10.74 6.06,10.89 5.93,11.02 5.80,11.14 5.64,11.23 5.48,11.32 5.31,11.37 5.13,11.42 4.95,11.43 4.77,11.44 4.59,11.40 4.41,11.36 4.25,11.28 4.08,11.21 3.94,11.09 3.80,10.97 3.69,10.83 3.59,10.68 3.52,10.52 3.44,10.35 3.24,9.48 3.04,8.60 2.68,7.66 2.32,6.72 1.84,5.55 1.36,4.39 0.83,3.52 0.30,2.66 -0.19,1.61 -0.69,0.57 -0.75,0.48 -0.81,0.39 -0.84,0.29 -0.88,0.18 -0.89,0.08 -0.90,-0.02 -0.88,-0.13 -0.86,-0.24 -0.82,-0.34 -0.78,-0.44 -0.72,-0.53 -0.65,-0.61 -0.57,-0.68 -0.48,-0.75 -0.39,-0.80 -0.29,-0.85 -0.18,-0.87 -0.08,-0.89 0.02,-0.89 0.13,-0.89 0.24,-0.86 0.34,-0.83 0.43,-0.77 0.53,-0.72 0.61,-0.65 0.69,-0.57 0.69,-0.57 L 0.69,-0.57 Z"/></g><g transform="translate(137 143.5) rotate(0 0.25 -5.25)" stroke="none"><path fill="#2f9e44" d="M -0.76,0 Q -0.76,0 -1.15,-0.86 -1.55,-1.72 -1.40,-2.78 -1.25,-3.84 -1.20,-4.61 -1.15,-5.38 -0.65,-7.77 -0.15,-10.16 -0.14,-10.26 -0.12,-10.37 -0.07,-10.46 -0.02,-10.56 0.05,-10.63 0.13,-10.70 0.23,-10.74 0.32,-10.79 0.43,-10.80 0.53,-10.81 0.64,-10.79 0.74,-10.76 0.83,-10.71 0.92,-10.65 0.99,-10.57 1.06,-10.49 1.10,-10.39 1.13,-10.29 1.14,-10.18 1.14,-10.08 1.11,-9.98 1.09,-9.87 1.03,-9.79 0.96,-9.70 0.88,-9.64 0.79,-9.57 0.69,-9.54 0.59,-9.51 0.49,-9.51 0.38,-9.51 0.28,-9.54 0.18,-9.58 0.10,-9.64 0.01,-9.71 -0.04,-9.80 -0.10,-9.88 -0.12,-9.99 -0.15,-10.09 -0.14,-10.20 -0.14,-10.30 -0.10,-10.40 -0.06,-10.50 0.00,-10.58 0.07,-10.66 0.16,-10.71 0.25,-10.77 0.36,-10.79 0.46,-10.81 0.57,-10.80 0.67,-10.79 0.77,-10.74 0.87,-10.69 0.94,-10.62 1.02,-10.55 1.07,-10.45 1.12,-10.36 1.13,-10.25 1.15,-10.15 1.15,-10.15 1.15,-10.15 1.56,-7.65 1.97,-5.15 1.90,-4.26 1.83,-3.37 1.69,-2.54 1.55,-1.72 1.15,-0.86 0.76,0 0.74,0.09 0.73,0.18 0.70,0.26 0.67,0.35 0.62,0.42 0.56,0.50 0.50,0.56 0.43,0.62 0.35,0.66 0.26,0.71 0.18,0.73 0.09,0.75 -0.00,0.75 -0.09,0.75 -0.18,0.73 -0.26,0.71 -0.35,0.66 -0.43,0.62 -0.50,0.56 -0.56,0.50 -0.62,0.42 -0.67,0.35 -0.70,0.26 -0.73,0.18 -0.74,0.09 -0.76,-0.00 -0.76,-0.00 L -0.76,0 Z"/></g><g transform="translate(125.5 120.5) rotate(0 4.75 -5)" stroke="none"><path fill="#2f9e44" d="M -0.71,-0.35 Q -0.71,-0.35 -0.59,-1.37 -0.48,-2.39 0.12,-3.62 0.74,-4.85 1.47,-6.02 2.20,-7.18 2.78,-8.08 3.37,-8.99 4.85,-9.89 6.33,-10.78 6.87,-10.44 7.40,-10.09 8.17,-8.73 8.94,-7.38 9.42,-5.05 9.90,-2.72 9.93,-2.61 9.95,-2.51 9.94,-2.40 9.93,-2.30 9.89,-2.20 9.85,-2.10 9.78,-2.02 9.71,-1.95 9.61,-1.89 9.52,-1.84 9.42,-1.82 9.31,-1.80 9.21,-1.82 9.10,-1.83 9.01,-1.88 8.91,-1.93 8.84,-2.00 8.76,-2.08 8.72,-2.18 8.67,-2.27 8.66,-2.38 8.64,-2.48 8.66,-2.59 8.68,-2.69 8.74,-2.78 8.79,-2.87 8.87,-2.94 8.95,-3.01 9.05,-3.06 9.14,-3.10 9.25,-3.11 9.36,-3.11 9.46,-3.09 9.56,-3.06 9.65,-3.00 9.74,-2.95 9.81,-2.86 9.87,-2.78 9.91,-2.68 9.94,-2.58 9.95,-2.47 9.95,-2.37 9.92,-2.27 9.88,-2.16 9.82,-2.08 9.76,-1.99 9.67,-1.93 9.59,-1.87 9.48,-1.84 9.38,-1.81 9.28,-1.81 9.17,-1.82 9.07,-1.85 8.97,-1.89 8.89,-1.96 8.81,-2.02 8.75,-2.11 8.69,-2.20 8.69,-2.20 8.69,-2.20 7.49,-4.10 6.28,-6.00 5.60,-7.28 4.92,-8.55 5.69,-8.55 6.45,-8.54 6.18,-7.95 5.90,-7.35 5.32,-6.46 4.75,-5.57 4.09,-4.54 3.43,-3.50 2.82,-2.27 2.20,-1.05 1.46,-0.34 0.71,0.35 0.66,0.43 0.60,0.51 0.53,0.58 0.46,0.64 0.38,0.69 0.29,0.74 0.20,0.76 0.11,0.79 0.01,0.79 -0.08,0.79 -0.17,0.77 -0.26,0.75 -0.35,0.71 -0.44,0.66 -0.51,0.60 -0.58,0.54 -0.64,0.46 -0.70,0.38 -0.73,0.29 -0.77,0.20 -0.78,0.11 -0.80,0.01 -0.79,-0.08 -0.78,-0.17 -0.74,-0.26 -0.71,-0.35 -0.71,-0.35 L -0.71,-0.35 Z"/></g><g transform="translate(79.5 147.5) rotate(0 1.75 -2.75)" stroke="none"><path fill="#2f9e44" d="M -0.68,0.34 Q -0.68,0.34 -1.19,-0.12 -1.71,-0.59 -1.88,-1.26 -2.06,-1.93 -2.13,-2.69 -2.20,-3.45 -2.06,-4.09 -1.91,-4.72 -1.49,-5.50 -1.06,-6.28 -0.59,-6.55 -0.13,-6.83 0.66,-6.98 1.45,-7.13 2.71,-6.81 3.98,-6.49 4.73,-5.87 5.47,-5.25 5.92,-4.19 6.37,-3.12 6.52,-2.23 6.68,-1.35 6.74,-0.67 6.80,0.01 6.65,0.66 6.51,1.31 6.18,1.86 5.84,2.41 5.16,2.78 4.47,3.16 3.31,3.10 2.15,3.05 1.34,2.83 0.53,2.61 -0.29,1.96 -1.11,1.31 -1.59,0.70 -2.07,0.09 -2.47,-0.86 -2.87,-1.82 -3.04,-2.73 -3.21,-3.64 -3.08,-4.68 -2.95,-5.72 -2.14,-6.68 -1.32,-7.63 -0.17,-8.04 0.97,-8.45 1.97,-8.26 2.98,-8.07 3.79,-7.43 4.61,-6.78 5.21,-6.05 5.82,-5.32 6.15,-4.58 6.48,-3.84 6.61,-3.13 6.74,-2.42 6.39,-1.34 6.03,-0.26 5.23,0.30 4.43,0.87 3.56,1.05 2.69,1.23 1.89,1.13 1.09,1.03 0.52,0.79 -0.04,0.55 -0.51,0.20 -0.97,-0.14 -1.31,-0.85 -1.65,-1.57 -1.51,-2.46 -1.36,-3.34 -0.67,-4.00 0.01,-4.66 0.87,-4.87 1.72,-5.09 2.74,-4.67 3.76,-4.26 4.34,-3.74 4.93,-3.23 5.12,-2.36 5.31,-1.49 5.04,-0.91 4.78,-0.34 4.04,0.07 3.30,0.49 2.61,0.63 1.92,0.76 1.26,0.64 0.60,0.51 0.10,0.22 -0.39,-0.07 -0.74,-0.65 -1.10,-1.24 -1.05,-2.01 -1.01,-2.78 -0.74,-3.29 -0.46,-3.80 0.11,-4.28 0.69,-4.76 1.91,-4.98 3.14,-5.20 4.00,-4.90 4.86,-4.60 5.36,-4.01 5.85,-3.41 5.88,-2.56 5.91,-1.72 5.37,-1.04 4.84,-0.37 3.81,-0.08 2.77,0.19 1.96,0.09 1.16,-0.00 0.42,-0.28 -0.30,-0.56 -0.83,-1.26 -1.37,-1.96 -1.34,-2.70 -1.32,-3.44 -0.68,-4.17 -0.05,-4.90 0.67,-5.21 1.40,-5.51 2.24,-5.45 3.08,-5.38 3.77,-4.88 4.45,-4.37 4.78,-3.50 5.10,-2.64 4.92,-1.81 4.74,-0.99 2.87,-0.16 1.01,0.66 0.90,0.65 0.80,0.63 0.70,0.58 0.61,0.53 0.54,0.45 0.47,0.37 0.42,0.27 0.38,0.18 0.37,0.07 0.36,-0.03 0.38,-0.13 0.41,-0.23 0.46,-0.32 0.52,-0.41 0.60,-0.48 0.68,-0.55 0.78,-0.59 0.88,-0.62 0.99,-0.63 1.09,-0.63 1.20,-0.60 1.30,-0.57 1.39,-0.51 1.47,-0.45 1.54,-0.37 1.60,-0.28 1.63,-0.18 1.66,-0.08 1.66,0.02 1.66,0.12 1.63,0.22 1.59,0.32 1.53,0.41 1.46,0.49 1.37,0.55 1.28,0.61 1.18,0.63 1.08,0.66 0.97,0.65 0.87,0.65 0.77,0.61 0.67,0.57 0.59,0.50 0.51,0.43 0.46,0.33 0.40,0.24 0.38,0.14 0.36,0.04 0.37,-0.06 0.38,-0.17 0.43,-0.26 0.48,-0.36 0.55,-0.43 0.62,-0.51 0.72,-0.56 0.81,-0.61 0.92,-0.62 1.02,-0.64 1.02,-0.64 1.02,-0.64 1.73,-1.33 2.45,-2.03 2.01,-2.38 1.57,-2.73 2.42,-2.59 3.27,-2.45 2.26,-2.41 1.26,-2.36 1.80,-2.09 2.34,-1.83 1.76,-1.92 1.18,-2.01 1.71,-1.79 2.24,-1.58 3.10,-1.85 3.97,-2.13 3.79,-2.85 3.62,-3.58 2.86,-4.51 2.11,-5.44 1.31,-5.50 0.51,-5.56 0.05,-4.82 -0.39,-4.09 -0.30,-3.46 -0.21,-2.84 -0.00,-2.22 0.21,-1.61 0.81,-0.84 1.41,-0.08 1.92,0.06 2.43,0.20 3.24,0.17 4.05,0.15 4.01,-0.40 3.98,-0.96 3.91,-1.64 3.84,-2.31 3.53,-3.09 3.22,-3.87 2.80,-4.29 2.38,-4.71 1.73,-4.64 1.07,-4.57 0.71,-4.08 0.35,-3.60 0.45,-2.65 0.56,-1.70 0.62,-1.02 0.68,-0.34 0.71,-0.25 0.74,-0.16 0.75,-0.07 0.76,0.01 0.74,0.10 0.73,0.19 0.70,0.28 0.66,0.36 0.61,0.44 0.55,0.51 0.48,0.57 0.41,0.63 0.33,0.67 0.25,0.71 0.16,0.73 0.07,0.75 -0.01,0.75 -0.10,0.75 -0.19,0.72 -0.28,0.70 -0.36,0.66 -0.44,0.61 -0.51,0.55 -0.57,0.49 -0.62,0.41 -0.68,0.34 -0.68,0.34 L -0.68,0.34 Z"/></g><g transform="translate(65.5 155.5) rotate(0 6 6.5)" stroke="none"><path fill="#2f9e44" d="M 0.56,-0.72 Q 0.56,-0.72 2.02,0.07 3.48,0.86 4.61,1.70 5.74,2.55 7.05,4.01 8.37,5.47 9.29,6.47 10.22,7.47 10.85,8.44 11.48,9.41 11.82,11.23 12.16,13.06 12.11,13.16 12.07,13.25 12.00,13.33 11.92,13.41 11.83,13.46 11.73,13.51 11.63,13.52 11.53,13.54 11.42,13.52 11.32,13.50 11.22,13.45 11.13,13.40 11.06,13.33 10.98,13.25 10.94,13.15 10.89,13.06 10.88,12.95 10.87,12.85 10.89,12.74 10.92,12.64 10.97,12.55 11.03,12.46 11.11,12.39 11.19,12.32 11.29,12.28 11.39,12.24 11.49,12.24 11.60,12.23 11.70,12.26 11.80,12.29 11.89,12.35 11.98,12.41 12.04,12.49 12.11,12.58 12.14,12.68 12.17,12.78 12.17,12.88 12.17,12.99 12.14,13.09 12.11,13.19 12.04,13.28 11.98,13.36 11.89,13.42 11.80,13.48 11.70,13.51 11.60,13.54 11.49,13.53 11.38,13.52 11.29,13.48 11.19,13.44 11.11,13.38 11.03,13.31 10.97,13.22 10.92,13.12 10.89,13.02 10.87,12.92 10.88,12.81 10.89,12.71 10.89,12.71 10.89,12.71 9.90,11.87 8.91,11.03 8.45,10.28 7.99,9.52 7.04,8.49 6.09,7.46 5.00,6.18 3.92,4.91 2.81,4.03 1.69,3.16 0.56,1.94 -0.56,0.72 -0.63,0.64 -0.71,0.56 -0.77,0.47 -0.83,0.37 -0.86,0.27 -0.89,0.16 -0.90,0.05 -0.91,-0.05 -0.89,-0.16 -0.87,-0.26 -0.82,-0.36 -0.78,-0.46 -0.71,-0.55 -0.64,-0.64 -0.56,-0.71 -0.47,-0.77 -0.37,-0.82 -0.27,-0.87 -0.16,-0.89 -0.05,-0.91 0.05,-0.90 0.16,-0.89 0.26,-0.86 0.37,-0.83 0.46,-0.77 0.56,-0.72 0.56,-0.72 L 0.56,-0.72 Z"/></g><g transform="translate(69 170) rotate(0 3.75 -9.25)" stroke="none"><path fill="#2f9e44" d="M -0.90,-0.30 Q -0.90,-0.30 -0.72,-1.67 -0.54,-3.05 0.10,-4.41 0.74,-5.77 1.25,-7.24 1.77,-8.71 2.59,-10.70 3.41,-12.69 5.01,-15.48 6.61,-18.28 6.68,-18.36 6.75,-18.44 6.84,-18.50 6.93,-18.56 7.03,-18.58 7.13,-18.61 7.24,-18.60 7.35,-18.59 7.44,-18.55 7.54,-18.50 7.62,-18.43 7.70,-18.36 7.75,-18.27 7.80,-18.18 7.82,-18.07 7.84,-17.97 7.83,-17.86 7.81,-17.76 7.76,-17.66 7.72,-17.57 7.64,-17.49 7.56,-17.42 7.47,-17.37 7.37,-17.32 7.27,-17.31 7.16,-17.30 7.06,-17.32 6.95,-17.34 6.86,-17.39 6.77,-17.44 6.70,-17.52 6.63,-17.60 6.59,-17.70 6.55,-17.80 6.54,-17.90 6.53,-18.01 6.56,-18.11 6.58,-18.22 6.64,-18.31 6.70,-18.39 6.78,-18.46 6.86,-18.53 6.96,-18.56 7.06,-18.60 7.17,-18.60 7.28,-18.60 7.38,-18.57 7.48,-18.54 7.57,-18.48 7.65,-18.41 7.71,-18.33 7.77,-18.24 7.80,-18.14 7.84,-18.04 7.83,-17.93 7.83,-17.83 7.79,-17.73 7.75,-17.63 7.75,-17.63 7.75,-17.63 6.97,-14.58 6.20,-11.53 5.40,-9.62 4.60,-7.71 4.02,-6.09 3.43,-4.47 2.85,-3.29 2.26,-2.11 1.58,-0.90 0.90,0.30 0.85,0.40 0.80,0.50 0.73,0.59 0.66,0.68 0.56,0.75 0.47,0.82 0.37,0.87 0.26,0.91 0.15,0.93 0.03,0.95 -0.07,0.94 -0.19,0.93 -0.29,0.89 -0.40,0.86 -0.50,0.79 -0.60,0.73 -0.68,0.65 -0.76,0.57 -0.81,0.47 -0.87,0.37 -0.90,0.26 -0.94,0.15 -0.94,0.03 -0.95,-0.07 -0.92,-0.18 -0.90,-0.30 -0.90,-0.30 L -0.90,-0.30 Z"/></g><g transform="translate(81 175.5) rotate(0 0.75 -5.5)" stroke="none"><path fill="#2f9e44" d="M -0.92,-0.09 Q -0.92,-0.09 -1.08,-1.56 -1.25,-3.02 -1.19,-4.45 -1.13,-5.88 -0.16,-8.48 0.80,-11.08 0.86,-11.17 0.93,-11.25 1.02,-11.31 1.10,-11.37 1.20,-11.40 1.31,-11.43 1.41,-11.43 1.52,-11.42 1.62,-11.39 1.72,-11.35 1.80,-11.28 1.88,-11.21 1.94,-11.12 1.99,-11.03 2.02,-10.93 2.04,-10.83 2.03,-10.72 2.02,-10.61 1.98,-10.52 1.93,-10.42 1.86,-10.34 1.79,-10.26 1.70,-10.21 1.60,-10.16 1.50,-10.14 1.39,-10.13 1.29,-10.14 1.18,-10.16 1.09,-10.21 0.99,-10.25 0.92,-10.33 0.85,-10.41 0.80,-10.50 0.75,-10.60 0.74,-10.70 0.73,-10.81 0.75,-10.91 0.77,-11.02 0.83,-11.11 0.88,-11.20 0.96,-11.27 1.04,-11.34 1.14,-11.38 1.24,-11.42 1.34,-11.43 1.45,-11.44 1.55,-11.41 1.65,-11.38 1.74,-11.32 1.83,-11.26 1.90,-11.18 1.96,-11.10 2.00,-11.00 2.03,-10.90 2.03,-10.79 2.03,-10.68 2.00,-10.58 1.97,-10.48 1.97,-10.48 1.97,-10.48 1.96,-8.12 1.95,-5.75 1.89,-4.23 1.82,-2.72 1.37,-1.31 0.92,0.09 0.89,0.20 0.87,0.31 0.82,0.41 0.77,0.51 0.70,0.59 0.62,0.68 0.53,0.74 0.44,0.81 0.34,0.85 0.24,0.89 0.13,0.91 0.01,0.92 -0.09,0.91 -0.20,0.90 -0.30,0.86 -0.41,0.82 -0.50,0.76 -0.60,0.70 -0.67,0.62 -0.75,0.54 -0.80,0.44 -0.85,0.34 -0.88,0.23 -0.91,0.13 -0.92,0.01 -0.92,-0.09 -0.92,-0.09 L -0.92,-0.09 Z"/></g><g transform="translate(160.5 82) rotate(0 1.5 -3)" stroke="none"><path fill="#2f9e44" d="M -0.61,0.40 Q -0.61,0.40 -1.18,0.15 -1.76,-0.10 -1.97,-0.82 -2.18,-1.53 -1.94,-2.78 -1.70,-4.02 -1.20,-4.78 -0.71,-5.53 -0.36,-5.95 -0.00,-6.36 0.56,-6.68 1.13,-7.00 1.89,-6.99 2.66,-6.97 3.64,-6.42 4.63,-5.87 4.87,-5.35 5.12,-4.83 5.07,-3.94 5.03,-3.05 4.76,-2.46 4.50,-1.86 4.05,-1.45 3.60,-1.04 2.84,-0.89 2.08,-0.73 1.25,-1.07 0.42,-1.41 -0.00,-2.06 -0.43,-2.71 -0.39,-3.41 -0.35,-4.12 0.29,-4.70 0.94,-5.28 1.80,-5.31 2.65,-5.35 3.15,-5.05 3.66,-4.75 4.01,-4.24 4.36,-3.73 4.34,-2.58 4.32,-1.44 3.49,-0.84 2.66,-0.24 1.87,-0.58 1.08,-0.93 1.02,-0.84 0.97,-0.75 0.89,-0.68 0.80,-0.61 0.71,-0.57 0.61,-0.53 0.50,-0.53 0.39,-0.52 0.29,-0.55 0.19,-0.58 0.10,-0.64 0.01,-0.70 -0.04,-0.78 -0.10,-0.87 -0.14,-0.97 -0.17,-1.07 -0.17,-1.17 -0.17,-1.28 -0.14,-1.38 -0.10,-1.48 -0.04,-1.57 0.02,-1.65 0.10,-1.71 0.19,-1.77 0.30,-1.80 0.40,-1.83 0.50,-1.82 0.61,-1.81 0.71,-1.77 0.81,-1.73 0.89,-1.67 0.97,-1.60 1.02,-1.50 1.08,-1.41 1.10,-1.31 1.12,-1.21 1.11,-1.10 1.10,-1.00 1.05,-0.90 1.01,-0.80 0.94,-0.73 0.86,-0.65 0.77,-0.60 0.68,-0.55 0.57,-0.53 0.47,-0.52 0.36,-0.53 0.26,-0.55 0.16,-0.60 0.07,-0.65 0.00,-0.73 -0.07,-0.81 -0.11,-0.90 -0.16,-1.00 -0.17,-1.10 -0.18,-1.21 -0.16,-1.31 -0.13,-1.42 -0.13,-1.42 -0.13,-1.42 0.95,-2.33 2.04,-3.24 2.06,-3.89 2.09,-4.53 1.55,-3.89 1.00,-3.25 0.80,-2.43 0.61,-1.62 0.61,-1.01 0.61,-0.40 0.65,-0.32 0.69,-0.24 0.71,-0.16 0.73,-0.07 0.73,0.01 0.72,0.10 0.70,0.18 0.68,0.27 0.64,0.34 0.59,0.42 0.53,0.49 0.47,0.55 0.40,0.60 0.33,0.65 0.24,0.68 0.16,0.71 0.07,0.72 -0.01,0.73 -0.09,0.72 -0.18,0.71 -0.27,0.67 -0.35,0.64 -0.42,0.59 -0.49,0.54 -0.55,0.47 -0.61,0.40 -0.61,0.40 L -0.61,0.40 Z"/></g><g transform="translate(168.5 80) rotate(0 3.5 5.5)" stroke="none"><path fill="#2f9e44" d="M 0.72,-0.48 Q 0.72,-0.48 1.85,0.63 2.98,1.74 3.79,3.03 4.60,4.31 5.38,5.58 6.15,6.84 6.74,8.82 7.34,10.80 7.38,10.90 7.42,11.00 7.43,11.10 7.43,11.21 7.41,11.31 7.38,11.41 7.32,11.50 7.26,11.59 7.18,11.66 7.09,11.72 6.99,11.76 6.89,11.79 6.79,11.79 6.68,11.80 6.58,11.76 6.48,11.73 6.39,11.67 6.31,11.60 6.25,11.52 6.19,11.43 6.16,11.33 6.13,11.23 6.13,11.12 6.14,11.01 6.17,10.92 6.21,10.82 6.28,10.73 6.35,10.65 6.44,10.60 6.53,10.54 6.63,10.52 6.73,10.49 6.84,10.50 6.95,10.51 7.04,10.56 7.14,10.60 7.22,10.67 7.30,10.74 7.35,10.84 7.40,10.93 7.42,11.03 7.44,11.14 7.42,11.24 7.40,11.35 7.36,11.44 7.31,11.54 7.23,11.61 7.15,11.69 7.06,11.73 6.96,11.78 6.86,11.79 6.75,11.80 6.65,11.78 6.54,11.76 6.45,11.71 6.36,11.65 6.29,11.57 6.22,11.49 6.22,11.49 6.22,11.49 4.89,9.96 3.56,8.43 2.80,7.18 2.03,5.93 1.25,4.67 0.46,3.42 -0.12,1.95 -0.72,0.48 -0.77,0.38 -0.81,0.29 -0.84,0.19 -0.86,0.09 -0.86,-0.01 -0.86,-0.11 -0.83,-0.22 -0.80,-0.32 -0.75,-0.41 -0.70,-0.50 -0.63,-0.58 -0.56,-0.66 -0.47,-0.71 -0.39,-0.77 -0.29,-0.81 -0.19,-0.84 -0.09,-0.86 0.01,-0.87 0.11,-0.85 0.22,-0.84 0.31,-0.80 0.41,-0.76 0.50,-0.70 0.58,-0.64 0.65,-0.56 0.72,-0.48 0.72,-0.48 L 0.72,-0.48 Z"/></g><g transform="translate(168.5 92) rotate(0 3.75 -8)" stroke="none"><path fill="#2f9e44" d="M -0.67,-0.13 Q -0.67,-0.13 -0.90,-0.93 -1.13,-1.72 -0.76,-2.73 -0.39,-3.74 0.34,-5.20 1.09,-6.66 1.82,-8.10 2.55,-9.54 3.14,-10.84 3.72,-12.15 5.10,-13.82 6.48,-15.50 6.55,-15.58 6.61,-15.67 6.70,-15.72 6.79,-15.78 6.89,-15.81 6.99,-15.84 7.10,-15.83 7.21,-15.83 7.31,-15.79 7.40,-15.75 7.48,-15.68 7.57,-15.61 7.62,-15.52 7.67,-15.43 7.70,-15.32 7.72,-15.22 7.71,-15.11 7.70,-15.01 7.65,-14.91 7.61,-14.82 7.53,-14.74 7.46,-14.66 7.37,-14.61 7.27,-14.56 7.17,-14.55 7.06,-14.53 6.96,-14.55 6.85,-14.57 6.76,-14.62 6.66,-14.67 6.59,-14.74 6.52,-14.82 6.47,-14.92 6.43,-15.01 6.42,-15.12 6.41,-15.22 6.43,-15.33 6.45,-15.43 6.51,-15.52 6.56,-15.61 6.65,-15.68 6.73,-15.75 6.83,-15.79 6.92,-15.83 7.03,-15.83 7.14,-15.84 7.24,-15.81 7.34,-15.78 7.43,-15.72 7.52,-15.66 7.58,-15.58 7.64,-15.49 7.68,-15.39 7.71,-15.29 7.71,-15.18 7.71,-15.08 7.68,-14.98 7.64,-14.88 7.64,-14.88 7.64,-14.88 7.07,-12.89 6.49,-10.90 5.87,-9.53 5.26,-8.16 4.51,-6.71 3.77,-5.25 3.06,-3.95 2.36,-2.65 2.03,-1.89 1.71,-1.14 1.19,-0.50 0.67,0.13 0.65,0.21 0.62,0.29 0.58,0.36 0.53,0.43 0.47,0.49 0.41,0.55 0.34,0.59 0.27,0.63 0.19,0.65 0.11,0.68 0.03,0.68 -0.05,0.68 -0.13,0.67 -0.21,0.65 -0.29,0.62 -0.36,0.58 -0.43,0.53 -0.49,0.48 -0.54,0.41 -0.59,0.34 -0.63,0.27 -0.66,0.19 -0.67,0.11 -0.69,0.03 -0.68,-0.05 -0.67,-0.13 -0.67,-0.13 L -0.67,-0.13 Z"/></g><g transform="translate(179.5 84) rotate(0 2.75 5.5)" stroke="none"><path fill="#2f9e44" d="M 0.61,-0.77 Q 0.61,-0.77 1.44,-0.31 2.26,0.14 2.85,0.95 3.43,1.76 3.99,2.96 4.55,4.16 4.15,5.30 3.75,6.43 3.24,7.15 2.73,7.86 2.37,8.31 2.00,8.76 3.75,9.49 5.50,10.23 5.58,10.30 5.66,10.37 5.72,10.46 5.77,10.55 5.79,10.66 5.81,10.76 5.80,10.86 5.79,10.97 5.74,11.07 5.70,11.16 5.62,11.24 5.55,11.31 5.45,11.36 5.36,11.41 5.26,11.43 5.15,11.44 5.05,11.42 4.94,11.41 4.85,11.36 4.75,11.30 4.68,11.23 4.61,11.15 4.57,11.05 4.52,10.95 4.51,10.85 4.50,10.74 4.53,10.64 4.55,10.54 4.61,10.45 4.66,10.36 4.74,10.29 4.83,10.22 4.93,10.18 5.02,10.14 5.13,10.14 5.24,10.13 5.34,10.16 5.44,10.19 5.53,10.25 5.62,10.32 5.68,10.40 5.74,10.49 5.77,10.59 5.81,10.69 5.81,10.79 5.80,10.90 5.77,11.00 5.73,11.10 5.67,11.19 5.60,11.27 5.52,11.33 5.43,11.39 5.32,11.41 5.22,11.44 5.11,11.43 5.01,11.43 4.91,11.39 4.81,11.35 4.81,11.35 4.81,11.35 2.52,10.78 0.23,10.22 -0.23,9.65 -0.71,9.09 -0.67,8.46 -0.62,7.83 -0.02,7.07 0.57,6.30 0.96,5.79 1.34,5.27 1.64,4.71 1.94,4.14 1.58,3.69 1.23,3.23 0.92,2.69 0.60,2.15 -0.00,1.46 -0.61,0.77 -0.70,0.68 -0.78,0.60 -0.84,0.49 -0.90,0.39 -0.93,0.28 -0.97,0.16 -0.97,0.04 -0.98,-0.06 -0.96,-0.18 -0.93,-0.30 -0.88,-0.41 -0.83,-0.51 -0.76,-0.61 -0.69,-0.70 -0.59,-0.77 -0.50,-0.85 -0.39,-0.89 -0.28,-0.94 -0.16,-0.96 -0.04,-0.98 0.06,-0.97 0.18,-0.96 0.30,-0.93 0.41,-0.89 0.51,-0.83 0.61,-0.77 0.61,-0.77 L 0.61,-0.77 Z"/></g><g transform="translate(160.5 77.5) rotate(0 29.25 -14.25)" stroke="none"><path fill="#2f9e44" d="M -0.22,-0.68 Q -0.22,-0.68 0.54,-1.22 1.32,-1.77 2.38,-2.18 3.44,-2.59 4.94,-3.08 6.43,-3.56 7.74,-4.06 9.05,-4.55 9.98,-5.02 10.91,-5.49 12.25,-6.03 13.59,-6.56 14.61,-7.16 15.64,-7.76 16.71,-8.34 17.78,-8.91 19.15,-9.48 20.53,-10.04 21.70,-10.43 22.88,-10.81 24.05,-11.25 25.22,-11.69 26.35,-12.04 27.47,-12.38 28.52,-12.68 29.58,-12.97 30.77,-13.24 31.96,-13.52 33.11,-13.65 34.26,-13.77 35.40,-13.96 36.53,-14.15 37.40,-14.37 38.27,-14.59 39.40,-14.84 40.54,-15.09 41.65,-15.46 42.77,-15.84 43.71,-16.15 44.64,-16.46 45.65,-16.74 46.65,-17.03 47.43,-17.16 48.21,-17.30 49.51,-17.58 50.81,-17.86 51.92,-18.23 53.03,-18.60 53.67,-18.82 54.30,-19.04 54.95,-19.20 55.60,-19.36 56.40,-19.60 57.21,-19.84 57.03,-19.26 56.84,-18.67 56.30,-19.25 55.76,-19.83 55.23,-20.41 54.70,-20.98 53.50,-22.07 52.30,-23.15 51.32,-24.08 50.34,-25.01 49.79,-25.54 49.23,-26.08 48.85,-26.46 48.46,-26.83 48.46,-26.86 48.46,-26.89 48.35,-27.03 48.24,-27.18 48.16,-27.34 48.08,-27.51 48.05,-27.69 48.01,-27.87 48.02,-28.05 48.03,-28.23 48.08,-28.40 48.13,-28.58 48.23,-28.74 48.32,-28.89 48.45,-29.02 48.57,-29.16 48.73,-29.25 48.88,-29.35 49.06,-29.40 49.23,-29.46 49.41,-29.47 49.59,-29.49 49.77,-29.46 49.95,-29.43 50.12,-29.35 50.29,-29.28 50.43,-29.17 50.58,-29.06 51.30,-28.34 52.02,-27.62 52.61,-27.03 53.20,-26.44 53.65,-26.13 54.10,-25.81 54.67,-25.31 55.24,-24.81 56.07,-24.02 56.91,-23.23 57.63,-22.34 58.35,-21.46 58.64,-20.22 58.94,-18.98 59.04,-17.63 59.15,-16.28 58.64,-14.93 58.14,-13.59 57.03,-11.70 55.92,-9.82 54.67,-8.76 53.42,-7.70 53.34,-7.62 53.27,-7.54 53.18,-7.49 53.09,-7.44 52.98,-7.42 52.88,-7.40 52.77,-7.42 52.67,-7.44 52.57,-7.48 52.48,-7.53 52.40,-7.61 52.33,-7.69 52.28,-7.78 52.24,-7.88 52.22,-7.98 52.21,-8.09 52.23,-8.19 52.26,-8.30 52.31,-8.39 52.36,-8.48 52.44,-8.55 52.52,-8.62 52.62,-8.66 52.72,-8.70 52.83,-8.71 52.93,-8.71 53.03,-8.69 53.14,-8.66 53.23,-8.60 53.31,-8.54 53.38,-8.46 53.44,-8.37 53.48,-8.27 53.51,-8.17 53.52,-8.07 53.52,-7.96 53.48,-7.86 53.45,-7.76 53.39,-7.67 53.33,-7.59 53.24,-7.53 53.15,-7.47 53.05,-7.44 52.95,-7.41 52.84,-7.41 52.73,-7.42 52.64,-7.46 52.54,-7.49 52.45,-7.56 52.37,-7.63 52.32,-7.72 52.26,-7.81 52.24,-7.91 52.21,-8.02 52.22,-8.12 52.23,-8.23 52.28,-8.33 52.32,-8.42 52.32,-8.42 52.32,-8.42 52.76,-9.93 53.20,-11.43 54.21,-13.11 55.22,-14.78 55.75,-16.07 56.28,-17.37 56.09,-18.03 55.90,-18.69 55.85,-19.24 55.80,-19.79 55.29,-20.41 54.78,-21.04 54.00,-21.78 53.22,-22.52 52.76,-22.94 52.30,-23.35 51.67,-23.82 51.05,-24.29 50.46,-24.88 49.87,-25.48 49.17,-26.18 48.46,-26.89 48.35,-27.03 48.24,-27.18 48.16,-27.34 48.08,-27.51 48.05,-27.69 48.01,-27.87 48.02,-28.05 48.03,-28.23 48.08,-28.40 48.13,-28.58 48.23,-28.74 48.32,-28.89 48.45,-29.02 48.57,-29.15 48.73,-29.25 48.88,-29.35 49.06,-29.40 49.23,-29.46 49.41,-29.47 49.59,-29.49 49.77,-29.46 49.95,-29.43 50.12,-29.35 50.29,-29.28 50.43,-29.17 50.58,-29.06 50.99,-28.70 51.40,-28.34 51.95,-27.81 52.50,-27.28 53.45,-26.38 54.40,-25.48 55.71,-24.29 57.02,-23.10 57.67,-22.39 58.31,-21.68 58.77,-20.98 59.23,-20.29 59.31,-19.55 59.39,-18.81 58.59,-17.88 57.80,-16.95 56.76,-16.68 55.72,-16.41 54.84,-16.08 53.96,-15.74 53.27,-15.52 52.59,-15.30 51.88,-15.09 51.17,-14.89 50.63,-14.84 50.09,-14.79 49.40,-14.57 48.71,-14.35 48.08,-14.25 47.46,-14.15 46.52,-13.89 45.58,-13.62 44.64,-13.31 43.70,-13.00 42.43,-12.60 41.16,-12.19 40.06,-11.96 38.97,-11.73 37.98,-11.50 37.00,-11.27 35.78,-11.08 34.57,-10.88 33.59,-10.79 32.60,-10.69 31.48,-10.43 30.35,-10.18 29.33,-9.90 28.31,-9.62 27.27,-9.31 26.22,-8.99 24.99,-8.54 23.76,-8.09 22.68,-7.74 21.59,-7.40 20.35,-6.91 19.10,-6.42 18.07,-5.87 17.03,-5.33 15.81,-4.64 14.59,-3.96 13.36,-3.50 12.12,-3.04 11.04,-2.52 9.97,-2.01 8.59,-1.54 7.22,-1.06 5.78,-0.63 4.34,-0.19 3.23,0.21 2.12,0.62 1.17,0.65 0.22,0.68 0.14,0.70 0.05,0.72 -0.02,0.72 -0.11,0.71 -0.20,0.69 -0.28,0.66 -0.36,0.62 -0.43,0.58 -0.49,0.51 -0.56,0.45 -0.60,0.38 -0.65,0.31 -0.68,0.22 -0.71,0.14 -0.71,0.05 -0.72,-0.02 -0.71,-0.11 -0.69,-0.20 -0.66,-0.28 -0.62,-0.36 -0.57,-0.43 -0.52,-0.50 -0.45,-0.55 -0.38,-0.61 -0.30,-0.65 -0.22,-0.68 -0.22,-0.68 L -0.22,-0.68 Z"/></g><g transform="translate(217.5 34.5) rotate(0 5.75 5.25)" stroke="none"><path fill="#2f9e44" d="M 0.61,-0.49 Q 0.61,-0.49 1.46,0.00 2.32,0.49 3.02,1.38 3.71,2.26 4.64,3.87 5.57,5.48 6.12,6.79 6.67,8.09 7.04,9.06 7.41,10.02 7.71,10.44 8.01,10.85 8.06,11.03 8.10,11.21 8.10,11.40 8.10,11.59 8.06,11.77 8.01,11.95 7.92,12.12 7.84,12.28 7.71,12.42 7.59,12.56 7.43,12.67 7.28,12.77 7.10,12.84 6.93,12.91 6.74,12.93 6.56,12.95 6.37,12.93 6.18,12.91 6.01,12.84 5.83,12.77 5.68,12.67 5.52,12.56 5.40,12.42 5.28,12.28 5.19,12.11 5.10,11.95 5.40,11.01 5.71,10.06 6.01,9.12 6.32,8.18 6.80,6.83 7.28,5.49 7.77,4.05 8.27,2.62 9.87,0.73 11.48,-1.16 11.58,-1.13 11.68,-1.10 11.77,-1.04 11.86,-0.99 11.93,-0.90 11.99,-0.82 12.03,-0.72 12.06,-0.62 12.06,-0.51 12.07,-0.41 12.03,-0.31 12.00,-0.20 11.94,-0.12 11.88,-0.03 11.79,0.02 11.70,0.08 11.60,0.11 11.50,0.14 11.39,0.14 11.29,0.13 11.19,0.09 11.09,0.06 11.00,-0.00 10.92,-0.07 10.87,-0.16 10.81,-0.25 10.79,-0.35 10.76,-0.46 10.77,-0.56 10.78,-0.67 10.82,-0.76 10.87,-0.86 10.94,-0.94 11.01,-1.02 11.10,-1.07 11.20,-1.12 11.30,-1.14 11.41,-1.16 11.51,-1.14 11.62,-1.13 11.71,-1.08 11.81,-1.03 11.88,-0.96 11.95,-0.88 12.00,-0.78 12.05,-0.69 12.06,-0.58 12.07,-0.48 12.05,-0.37 12.03,-0.27 11.98,-0.18 11.92,-0.09 11.84,-0.02 11.76,0.04 11.67,0.09 11.57,0.13 11.46,0.13 11.36,0.14 11.36,0.14 11.36,0.14 11.30,1.89 11.25,3.65 10.75,5.10 10.25,6.56 9.74,7.96 9.24,9.36 8.57,10.81 7.91,12.27 7.96,11.56 8.01,10.85 8.06,11.03 8.10,11.21 8.10,11.40 8.10,11.59 8.06,11.77 8.01,11.95 7.92,12.12 7.84,12.28 7.71,12.42 7.59,12.56 7.43,12.67 7.28,12.77 7.10,12.84 6.93,12.91 6.74,12.93 6.56,12.95 6.37,12.93 6.18,12.91 6.01,12.84 5.83,12.77 5.68,12.67 5.52,12.56 5.40,12.42 5.28,12.28 5.19,12.12 5.10,11.95 4.81,11.55 4.52,11.15 4.16,10.22 3.81,9.28 3.34,8.14 2.87,7.00 2.08,5.56 1.28,4.12 0.62,3.25 -0.02,2.37 -0.31,1.43 -0.61,0.49 -0.66,0.41 -0.71,0.32 -0.74,0.23 -0.77,0.14 -0.77,0.05 -0.78,-0.03 -0.76,-0.13 -0.75,-0.22 -0.71,-0.31 -0.67,-0.39 -0.61,-0.47 -0.56,-0.54 -0.48,-0.60 -0.41,-0.66 -0.32,-0.70 -0.24,-0.74 -0.14,-0.76 -0.05,-0.78 0.03,-0.77 0.13,-0.77 0.22,-0.74 0.31,-0.71 0.39,-0.67 0.47,-0.62 0.54,-0.55 0.61,-0.49 0.61,-0.49 L 0.61,-0.49 Z"/></g><g transform="translate(232 44.5) rotate(0 1.5 5.5)" stroke="none"><path fill="#2f9e44" d="M 0.22,-0.89 Q 0.22,-0.89 0.88,-0.93 1.53,-0.96 2.20,-0.44 2.88,0.08 3.21,0.93 3.55,1.77 3.64,2.58 3.74,3.39 3.45,4.52 3.16,5.65 2.50,6.52 1.84,7.39 1.45,7.83 1.07,8.27 2.45,9.27 3.83,10.26 3.92,10.31 4.02,10.35 4.09,10.43 4.17,10.50 4.22,10.60 4.27,10.69 4.28,10.80 4.30,10.90 4.28,11.01 4.26,11.11 4.21,11.20 4.15,11.30 4.08,11.37 4.00,11.44 3.90,11.48 3.80,11.53 3.70,11.53 3.59,11.54 3.49,11.52 3.38,11.49 3.29,11.44 3.20,11.38 3.14,11.30 3.07,11.22 3.03,11.12 3.00,11.02 2.99,10.91 2.99,10.81 3.02,10.70 3.05,10.60 3.11,10.52 3.17,10.43 3.26,10.37 3.34,10.30 3.44,10.27 3.54,10.24 3.65,10.24 3.76,10.24 3.86,10.28 3.96,10.31 4.04,10.38 4.12,10.45 4.18,10.54 4.24,10.62 4.27,10.73 4.29,10.83 4.29,10.94 4.28,11.04 4.24,11.14 4.20,11.24 4.13,11.32 4.05,11.40 3.96,11.45 3.87,11.50 3.77,11.52 3.66,11.55 3.56,11.53 3.45,11.52 3.45,11.52 3.45,11.52 1.78,11.20 0.10,10.88 -0.62,10.47 -1.35,10.06 -1.64,9.47 -1.93,8.89 -1.45,7.68 -0.96,6.47 -0.60,6.06 -0.24,5.66 0.17,5.23 0.59,4.79 0.82,4.19 1.05,3.59 0.90,2.57 0.76,1.54 0.26,1.21 -0.22,0.89 -0.32,0.85 -0.43,0.81 -0.52,0.75 -0.61,0.68 -0.68,0.60 -0.76,0.52 -0.81,0.42 -0.86,0.32 -0.88,0.21 -0.91,0.10 -0.91,-0.00 -0.91,-0.11 -0.88,-0.22 -0.86,-0.33 -0.80,-0.42 -0.75,-0.52 -0.68,-0.60 -0.60,-0.69 -0.51,-0.75 -0.42,-0.81 -0.32,-0.85 -0.21,-0.89 -0.10,-0.90 0.00,-0.92 0.11,-0.90 0.22,-0.89 0.22,-0.89 L 0.22,-0.89 Z"/></g><g transform="translate(218.5 24.5) rotate(0 5.5 -1.75)" stroke="none"><path fill="#2f9e44" d="M -0.60,-0.73 Q -0.60,-0.73 0.06,-1.67 0.73,-2.62 1.36,-3.19 1.99,-3.76 2.47,-4.37 2.96,-4.97 3.30,-5.49 3.63,-6.00 4.15,-6.54 4.67,-7.07 5.38,-7.27 6.09,-7.46 6.73,-7.23 7.37,-7.01 7.86,-6.46 8.36,-5.91 8.83,-4.91 9.31,-3.91 9.64,-3.08 9.97,-2.24 10.58,0.03 11.20,2.30 11.26,2.38 11.33,2.46 11.37,2.56 11.41,2.66 11.41,2.77 11.42,2.87 11.39,2.98 11.36,3.08 11.30,3.17 11.24,3.25 11.15,3.32 11.07,3.38 10.97,3.41 10.87,3.45 10.76,3.45 10.66,3.45 10.56,3.41 10.45,3.38 10.37,3.31 10.29,3.25 10.23,3.16 10.17,3.07 10.14,2.97 10.11,2.86 10.12,2.76 10.13,2.65 10.17,2.55 10.21,2.46 10.28,2.37 10.35,2.29 10.44,2.24 10.53,2.19 10.63,2.16 10.74,2.14 10.84,2.15 10.95,2.17 11.04,2.21 11.14,2.26 11.22,2.33 11.29,2.40 11.34,2.50 11.39,2.59 11.41,2.70 11.42,2.80 11.41,2.91 11.39,3.01 11.34,3.11 11.29,3.20 11.21,3.27 11.13,3.34 11.03,3.39 10.94,3.43 10.83,3.44 10.73,3.45 10.62,3.43 10.52,3.41 10.43,3.35 10.34,3.30 10.34,3.30 10.34,3.30 8.72,1.09 7.09,-1.11 6.80,-1.87 6.51,-2.63 6.36,-3.46 6.22,-4.28 5.79,-3.64 5.36,-3.00 4.71,-2.23 4.07,-1.47 3.39,-0.86 2.71,-0.25 1.66,0.23 0.60,0.73 0.51,0.79 0.41,0.85 0.30,0.89 0.19,0.92 0.08,0.94 -0.02,0.95 -0.14,0.93 -0.25,0.91 -0.36,0.87 -0.46,0.82 -0.55,0.76 -0.65,0.69 -0.72,0.60 -0.79,0.51 -0.84,0.41 -0.89,0.31 -0.92,0.19 -0.94,0.08 -0.94,-0.02 -0.94,-0.14 -0.90,-0.25 -0.87,-0.36 -0.82,-0.46 -0.76,-0.56 -0.68,-0.64 -0.60,-0.73 -0.60,-0.73 L -0.60,-0.73 Z"/></g><g transform="translate(10 102) rotate(0 8.75 -1)" stroke="none"><path fill="#1e1e1e" d="M -0.40,-0.67 Q -0.40,-0.67 0.16,-1.35 0.74,-2.03 1.48,-2.28 2.21,-2.53 3.52,-2.87 4.82,-3.22 5.44,-3.26 6.06,-3.31 6.76,-3.33 7.47,-3.35 8.38,-3.36 9.29,-3.37 9.94,-3.37 10.58,-3.37 11.21,-3.19 11.84,-3.02 12.59,-2.97 13.35,-2.93 15.25,-2.33 17.14,-1.73 17.24,-1.69 17.34,-1.66 17.42,-1.59 17.51,-1.53 17.56,-1.44 17.62,-1.35 17.65,-1.24 17.67,-1.14 17.66,-1.03 17.65,-0.93 17.61,-0.83 17.57,-0.73 17.50,-0.65 17.43,-0.57 17.34,-0.52 17.24,-0.47 17.14,-0.45 17.04,-0.43 16.93,-0.44 16.82,-0.46 16.73,-0.51 16.63,-0.55 16.56,-0.63 16.48,-0.70 16.44,-0.80 16.39,-0.89 16.38,-1.00 16.36,-1.10 16.38,-1.21 16.40,-1.31 16.45,-1.41 16.51,-1.50 16.58,-1.57 16.66,-1.64 16.76,-1.68 16.86,-1.72 16.96,-1.73 17.07,-1.74 17.17,-1.72 17.28,-1.69 17.37,-1.63 17.46,-1.58 17.52,-1.49 17.59,-1.41 17.63,-1.31 17.66,-1.21 17.67,-1.10 17.67,-1.00 17.64,-0.90 17.61,-0.79 17.54,-0.71 17.48,-0.62 17.40,-0.56 17.31,-0.50 17.21,-0.47 17.11,-0.44 17.00,-0.44 16.89,-0.44 16.89,-0.44 16.89,-0.44 15.05,-0.29 13.20,-0.14 12.67,-0.17 12.13,-0.20 11.33,-0.41 10.54,-0.62 9.92,-0.61 9.31,-0.61 8.42,-0.60 7.54,-0.59 6.89,-0.58 6.25,-0.56 5.23,-0.48 4.21,-0.40 3.17,-0.04 2.12,0.30 1.26,0.49 0.40,0.67 0.32,0.71 0.23,0.75 0.13,0.77 0.04,0.79 -0.05,0.78 -0.14,0.77 -0.23,0.75 -0.32,0.72 -0.40,0.67 -0.49,0.62 -0.55,0.55 -0.62,0.48 -0.67,0.40 -0.72,0.32 -0.75,0.23 -0.77,0.14 -0.78,0.04 -0.79,-0.05 -0.77,-0.14 -0.75,-0.23 -0.71,-0.32 -0.67,-0.41 -0.61,-0.48 -0.55,-0.56 -0.48,-0.62 -0.40,-0.67 -0.40,-0.67 L -0.40,-0.67 Z"/></g><g transform="translate(47.5 100.5) rotate(0 7.75 -1)" stroke="none"><path fill="#1e1e1e" d="M -0.32,-0.85 Q -0.32,-0.85 0.73,-1.53 1.79,-2.20 2.82,-2.42 3.85,-2.64 4.80,-2.86 5.75,-3.07 6.98,-3.16 8.21,-3.25 9.15,-3.21 10.09,-3.16 12.31,-2.90 14.52,-2.64 14.63,-2.62 14.73,-2.61 14.83,-2.56 14.92,-2.51 14.99,-2.44 15.07,-2.36 15.11,-2.26 15.16,-2.17 15.17,-2.06 15.19,-1.96 15.16,-1.85 15.14,-1.75 15.09,-1.66 15.03,-1.56 14.95,-1.50 14.87,-1.43 14.78,-1.38 14.68,-1.34 14.57,-1.34 14.47,-1.33 14.36,-1.36 14.26,-1.39 14.17,-1.44 14.08,-1.50 14.02,-1.59 13.95,-1.67 13.92,-1.77 13.88,-1.87 13.88,-1.98 13.88,-2.08 13.91,-2.18 13.95,-2.29 14.01,-2.37 14.07,-2.46 14.16,-2.52 14.25,-2.58 14.35,-2.61 14.45,-2.64 14.56,-2.63 14.66,-2.63 14.76,-2.59 14.86,-2.55 14.94,-2.48 15.03,-2.41 15.08,-2.32 15.14,-2.23 15.16,-2.13 15.18,-2.03 15.17,-1.92 15.16,-1.82 15.12,-1.72 15.08,-1.62 15.00,-1.54 14.93,-1.47 14.84,-1.42 14.75,-1.36 14.64,-1.35 14.54,-1.33 14.54,-1.33 14.54,-1.33 12.37,-1.02 10.20,-0.71 9.32,-0.59 8.44,-0.46 7.41,-0.36 6.39,-0.26 5.40,-0.04 4.42,0.18 3.61,0.33 2.80,0.48 1.56,0.66 0.32,0.85 0.21,0.88 0.10,0.90 -0.00,0.90 -0.11,0.90 -0.22,0.87 -0.32,0.85 -0.42,0.80 -0.52,0.74 -0.60,0.67 -0.68,0.60 -0.74,0.51 -0.81,0.42 -0.84,0.31 -0.88,0.21 -0.90,0.10 -0.91,-0.00 -0.89,-0.11 -0.88,-0.22 -0.84,-0.32 -0.80,-0.42 -0.74,-0.51 -0.68,-0.60 -0.59,-0.68 -0.51,-0.75 -0.41,-0.80 -0.32,-0.85 -0.32,-0.85 L -0.32,-0.85 Z"/></g><g transform="translate(82 99.5) rotate(0 6.5 -0.25)" stroke="none"><path fill="#1e1e1e" d="M 0,-0.89 Q 0,-0.89 1.00,-1.09 2.01,-1.30 3.73,-1.31 5.45,-1.32 6.84,-1.41 8.23,-1.51 10.21,-1.11 12.20,-0.70 12.30,-0.68 12.40,-0.66 12.49,-0.60 12.59,-0.54 12.65,-0.46 12.72,-0.38 12.76,-0.28 12.80,-0.18 12.80,-0.08 12.81,0.02 12.78,0.12 12.75,0.22 12.69,0.31 12.63,0.40 12.54,0.46 12.46,0.53 12.36,0.56 12.26,0.59 12.15,0.59 12.04,0.59 11.94,0.56 11.84,0.52 11.76,0.46 11.68,0.39 11.62,0.30 11.56,0.21 11.53,0.11 11.50,0.01 11.51,-0.09 11.52,-0.19 11.56,-0.29 11.60,-0.39 11.67,-0.47 11.74,-0.55 11.83,-0.60 11.92,-0.66 12.02,-0.68 12.13,-0.70 12.23,-0.69 12.34,-0.68 12.43,-0.63 12.53,-0.59 12.61,-0.51 12.68,-0.44 12.73,-0.35 12.78,-0.25 12.80,-0.15 12.81,-0.04 12.79,0.05 12.78,0.16 12.73,0.25 12.68,0.34 12.60,0.42 12.52,0.49 12.42,0.53 12.33,0.58 12.22,0.59 12.12,0.60 12.12,0.60 12.12,0.60 10.29,0.77 8.47,0.94 6.96,1.13 5.45,1.32 3.73,1.31 2.01,1.30 1.00,1.09 0,0.89 -0.10,0.88 -0.21,0.87 -0.31,0.83 -0.41,0.79 -0.50,0.73 -0.59,0.67 -0.66,0.59 -0.73,0.50 -0.78,0.41 -0.83,0.31 -0.86,0.21 -0.88,0.10 -0.88,-0.00 -0.88,-0.10 -0.86,-0.21 -0.83,-0.31 -0.78,-0.41 -0.73,-0.50 -0.66,-0.59 -0.59,-0.67 -0.50,-0.73 -0.41,-0.79 -0.31,-0.83 -0.21,-0.87 -0.10,-0.88 0.00,-0.89 0.00,-0.89 L 0,-0.89 Z"/></g><g transform="translate(112.5 99.5) rotate(0 4.25 0.25)" stroke="none"><path fill="#1e1e1e" d="M 0,-0.77 Q 0,-0.77 1.43,-0.97 2.87,-1.17 5.41,-0.70 7.95,-0.24 8.05,-0.20 8.15,-0.17 8.24,-0.11 8.32,-0.05 8.38,0.03 8.45,0.12 8.48,0.22 8.51,0.32 8.50,0.43 8.50,0.53 8.46,0.63 8.43,0.73 8.36,0.81 8.29,0.90 8.20,0.95 8.11,1.01 8.01,1.03 7.91,1.06 7.80,1.05 7.69,1.04 7.60,1.00 7.50,0.96 7.42,0.88 7.34,0.81 7.29,0.72 7.24,0.63 7.22,0.52 7.20,0.42 7.21,0.31 7.23,0.21 7.28,0.11 7.32,0.02 7.40,-0.05 7.48,-0.12 7.57,-0.17 7.67,-0.21 7.77,-0.23 7.88,-0.24 7.98,-0.22 8.09,-0.20 8.18,-0.15 8.27,-0.10 8.34,-0.02 8.41,0.05 8.45,0.15 8.49,0.25 8.50,0.36 8.51,0.46 8.48,0.56 8.46,0.67 8.40,0.76 8.34,0.85 8.26,0.91 8.18,0.98 8.08,1.01 7.98,1.05 7.87,1.05 7.76,1.05 7.76,1.05 7.76,1.05 5.32,1.11 2.87,1.17 1.43,0.97 0,0.77 -0.09,0.76 -0.18,0.75 -0.27,0.72 -0.36,0.69 -0.43,0.63 -0.51,0.58 -0.57,0.51 -0.64,0.44 -0.68,0.35 -0.72,0.27 -0.75,0.18 -0.77,0.09 -0.77,-0.00 -0.77,-0.09 -0.75,-0.18 -0.72,-0.27 -0.68,-0.35 -0.64,-0.44 -0.57,-0.51 -0.51,-0.58 -0.43,-0.63 -0.36,-0.69 -0.27,-0.72 -0.18,-0.75 -0.09,-0.76 0.00,-0.77 0.00,-0.77 L 0,-0.77 Z"/></g><g transform="translate(137.5 101.5) rotate(0 3.25 -1.5)" stroke="none"><path fill="#1e1e1e" d="M -0.45,-0.75 Q -0.45,-0.75 0.21,-1.26 0.88,-1.78 2.13,-2.26 3.39,-2.74 4.24,-2.92 5.09,-3.10 5.17,-3.12 5.24,-3.14 5.32,-3.14 5.40,-3.14 5.48,-3.12 5.56,-3.11 5.63,-3.07 5.70,-3.03 5.76,-2.98 5.82,-2.93 5.86,-2.87 5.91,-2.80 5.94,-2.73 5.97,-2.66 5.98,-2.58 5.99,-2.50 5.98,-2.42 5.98,-2.34 5.95,-2.27 5.92,-2.19 5.88,-2.13 5.84,-2.06 5.78,-2.01 5.72,-1.95 5.65,-1.92 5.58,-1.88 4.06,-1.17 2.54,-0.46 2.44,-0.43 2.34,-0.40 2.23,-0.41 2.13,-0.41 2.03,-0.45 1.93,-0.49 1.85,-0.56 1.77,-0.63 1.71,-0.72 1.66,-0.81 1.63,-0.91 1.61,-1.02 1.62,-1.12 1.63,-1.23 1.68,-1.32 1.72,-1.42 1.79,-1.50 1.87,-1.58 1.96,-1.63 2.05,-1.68 2.16,-1.69 2.26,-1.71 2.37,-1.69 2.47,-1.68 2.57,-1.63 2.66,-1.58 2.73,-1.50 2.81,-1.42 2.85,-1.33 2.90,-1.23 2.91,-1.13 2.92,-1.02 2.90,-0.92 2.88,-0.81 2.82,-0.72 2.77,-0.63 2.69,-0.56 2.61,-0.49 2.51,-0.45 2.41,-0.41 2.30,-0.41 2.20,-0.40 2.09,-0.43 1.99,-0.46 1.90,-0.52 1.81,-0.58 1.75,-0.66 1.69,-0.74 1.65,-0.85 1.62,-0.95 1.62,-1.05 1.62,-1.16 1.65,-1.26 1.68,-1.36 1.75,-1.44 1.81,-1.53 1.90,-1.59 1.99,-1.65 1.99,-1.65 1.99,-1.65 3.54,-2.37 5.09,-3.10 5.17,-3.12 5.24,-3.14 5.32,-3.14 5.40,-3.14 5.48,-3.12 5.56,-3.11 5.63,-3.07 5.70,-3.03 5.76,-2.98 5.82,-2.93 5.86,-2.87 5.91,-2.80 5.94,-2.73 5.97,-2.66 5.98,-2.58 5.99,-2.50 5.98,-2.42 5.98,-2.34 5.95,-2.27 5.92,-2.19 5.88,-2.13 5.84,-2.06 5.78,-2.01 5.72,-1.95 5.65,-1.92 5.58,-1.88 4.87,-1.37 4.15,-0.86 3.07,-0.39 1.98,0.06 1.22,0.40 0.45,0.75 0.35,0.79 0.25,0.83 0.15,0.85 0.05,0.87 -0.05,0.86 -0.16,0.86 -0.26,0.83 -0.36,0.79 -0.45,0.74 -0.54,0.68 -0.61,0.61 -0.69,0.53 -0.74,0.44 -0.80,0.35 -0.83,0.25 -0.86,0.15 -0.86,0.04 -0.87,-0.05 -0.85,-0.15 -0.83,-0.26 -0.79,-0.36 -0.74,-0.45 -0.68,-0.53 -0.61,-0.62 -0.53,-0.68 -0.45,-0.75 -0.45,-0.75 L -0.45,-0.75 Z"/></g><g transform="translate(79 103) rotate(0 4.5 11.75)" stroke="none"><path fill="#1e1e1e" d="M 0.88,0 Q 0.88,0 1.10,1.15 1.33,2.3 1.34,3.36 1.35,4.42 1.36,5.59 1.37,6.76 1.52,8.50 1.67,10.23 2.42,12.71 3.18,15.19 4.41,17.00 5.64,18.80 7.28,20.73 8.91,22.65 8.99,22.72 9.07,22.79 9.12,22.89 9.17,22.98 9.19,23.09 9.20,23.19 9.19,23.30 9.17,23.40 9.12,23.50 9.07,23.59 8.99,23.66 8.92,23.74 8.82,23.78 8.72,23.83 8.62,23.84 8.51,23.85 8.41,23.83 8.31,23.80 8.21,23.75 8.12,23.70 8.05,23.61 7.99,23.53 7.95,23.44 7.91,23.34 7.90,23.23 7.89,23.12 7.92,23.02 7.95,22.92 8.01,22.83 8.07,22.74 8.15,22.68 8.24,22.61 8.34,22.58 8.44,22.55 8.55,22.55 8.65,22.55 8.75,22.58 8.85,22.61 8.94,22.68 9.02,22.74 9.08,22.83 9.14,22.92 9.17,23.02 9.20,23.12 9.19,23.23 9.19,23.33 9.15,23.43 9.11,23.53 9.04,23.61 8.97,23.69 8.88,23.75 8.79,23.80 8.69,23.83 8.58,23.85 8.48,23.84 8.37,23.83 8.28,23.78 8.18,23.74 8.18,23.74 8.18,23.74 5.79,22.03 3.39,20.33 1.95,18.18 0.51,16.02 -0.29,13.24 -1.09,10.46 -1.23,8.61 -1.37,6.76 -1.36,5.59 -1.35,4.42 -1.34,3.36 -1.33,2.3 -1.10,1.15 -0.88,0 -0.87,-0.10 -0.85,-0.21 -0.82,-0.31 -0.78,-0.41 -0.72,-0.49 -0.66,-0.58 -0.58,-0.65 -0.50,-0.72 -0.40,-0.77 -0.31,-0.82 -0.20,-0.85 -0.10,-0.87 0.00,-0.87 0.10,-0.87 0.21,-0.85 0.31,-0.82 0.40,-0.77 0.50,-0.72 0.58,-0.65 0.66,-0.58 0.72,-0.49 0.78,-0.41 0.82,-0.31 0.85,-0.21 0.87,-0.10 0.88,0.00 0.88,0.00 L 0.88,0 Z"/></g><g transform="translate(57.5 118.5) rotate(0 2.5 4)" stroke="none"><path fill="#1e1e1e" d="M 0.69,0.51 Q 0.69,0.51 0.45,1.23 0.21,1.95 -0.24,2.61 -0.69,3.26 -1.10,4.30 -1.51,5.33 -1.85,6.23 -2.19,7.12 -2.30,7.92 -2.41,8.71 -1.88,9.42 -1.35,10.13 -0.70,10.21 -0.05,10.28 0.83,10.23 1.73,10.19 2.78,9.53 3.83,8.87 4.66,7.97 5.49,7.07 5.92,5.96 6.36,4.86 6.70,2.90 7.03,0.93 6.78,-0.14 6.52,-1.22 5.94,-1.78 5.36,-2.35 4.48,-2.04 3.59,-1.72 2.40,-1.07 1.21,-0.42 1.13,-0.35 1.05,-0.28 0.95,-0.24 0.85,-0.20 0.74,-0.20 0.64,-0.19 0.53,-0.22 0.43,-0.24 0.34,-0.30 0.26,-0.36 0.19,-0.45 0.13,-0.53 0.09,-0.63 0.06,-0.73 0.06,-0.84 0.05,-0.94 0.09,-1.04 0.12,-1.15 0.18,-1.23 0.25,-1.32 0.34,-1.38 0.42,-1.44 0.52,-1.47 0.63,-1.49 0.73,-1.49 0.84,-1.48 0.94,-1.45 1.04,-1.41 1.12,-1.34 1.20,-1.27 1.26,-1.18 1.31,-1.09 1.33,-0.99 1.36,-0.88 1.35,-0.78 1.34,-0.67 1.29,-0.57 1.25,-0.48 1.18,-0.40 1.10,-0.32 1.01,-0.27 0.92,-0.22 0.81,-0.20 0.71,-0.19 0.60,-0.20 0.50,-0.22 0.40,-0.27 0.31,-0.32 0.24,-0.39 0.16,-0.47 0.12,-0.57 0.07,-0.66 0.06,-0.77 0.05,-0.87 0.07,-0.98 0.09,-1.08 0.15,-1.17 0.20,-1.26 0.20,-1.26 0.20,-1.26 1.54,-2.42 2.89,-3.59 4.36,-4.17 5.83,-4.75 6.98,-4.25 8.13,-3.74 8.70,-2.78 9.26,-1.81 9.54,-0.22 9.82,1.36 9.38,3.67 8.95,5.97 8.25,7.47 7.54,8.97 6.37,10.13 5.20,11.29 3.58,12.11 1.95,12.92 0.61,12.95 -0.73,12.98 -1.96,12.55 -3.20,12.13 -3.91,11.28 -4.63,10.43 -4.88,9.43 -5.14,8.42 -4.95,7.29 -4.77,6.15 -4.40,5.21 -4.03,4.26 -3.47,2.99 -2.91,1.73 -2.42,1.03 -1.93,0.34 -1.31,-0.08 -0.69,-0.51 -0.61,-0.59 -0.54,-0.66 -0.45,-0.72 -0.37,-0.77 -0.27,-0.81 -0.17,-0.84 -0.06,-0.85 0.03,-0.86 0.13,-0.84 0.23,-0.82 0.33,-0.78 0.43,-0.74 0.51,-0.68 0.59,-0.62 0.66,-0.54 0.72,-0.46 0.77,-0.36 0.81,-0.27 0.83,-0.17 0.85,-0.07 0.85,0.03 0.85,0.13 0.82,0.23 0.79,0.33 0.74,0.42 0.68,0.51 0.68,0.51 L 0.69,0.51 Z"/></g><g transform="translate(56.5 128) rotate(0 3.75 -5.75)" stroke="none"><path fill="#1e1e1e" d="M -0.72,-0.60 Q -0.72,-0.60 -0.17,-1.61 0.36,-2.62 1.07,-3.55 1.78,-4.48 2.45,-5.78 3.13,-7.09 3.76,-8.14 4.39,-9.19 5.57,-10.39 6.76,-11.59 6.83,-11.66 6.91,-11.74 7.00,-11.79 7.10,-11.84 7.20,-11.85 7.31,-11.87 7.41,-11.85 7.51,-11.83 7.61,-11.78 7.70,-11.73 7.77,-11.65 7.85,-11.57 7.89,-11.48 7.93,-11.38 7.94,-11.27 7.95,-11.17 7.93,-11.06 7.90,-10.96 7.85,-10.87 7.79,-10.78 7.71,-10.71 7.63,-10.64 7.53,-10.61 7.43,-10.57 7.33,-10.56 7.22,-10.56 7.12,-10.59 7.02,-10.62 6.93,-10.68 6.84,-10.74 6.78,-10.82 6.71,-10.91 6.68,-11.01 6.65,-11.11 6.65,-11.22 6.65,-11.32 6.69,-11.43 6.72,-11.53 6.79,-11.61 6.85,-11.69 6.94,-11.75 7.03,-11.81 7.13,-11.84 7.23,-11.86 7.34,-11.86 7.45,-11.85 7.54,-11.81 7.64,-11.77 7.72,-11.70 7.80,-11.63 7.86,-11.54 7.91,-11.45 7.93,-11.34 7.95,-11.24 7.94,-11.13 7.93,-11.03 7.88,-10.93 7.84,-10.84 7.84,-10.84 7.84,-10.84 7.33,-9.30 6.82,-7.76 6.24,-6.75 5.66,-5.74 4.85,-4.24 4.03,-2.73 3.27,-1.78 2.51,-0.82 1.61,-0.11 0.72,0.60 0.63,0.67 0.55,0.75 0.45,0.81 0.35,0.86 0.25,0.89 0.14,0.92 0.02,0.93 -0.08,0.93 -0.19,0.91 -0.30,0.88 -0.40,0.83 -0.51,0.78 -0.59,0.71 -0.68,0.64 -0.75,0.55 -0.81,0.46 -0.86,0.35 -0.90,0.25 -0.92,0.14 -0.93,0.02 -0.92,-0.08 -0.91,-0.19 -0.88,-0.30 -0.84,-0.41 -0.78,-0.50 -0.72,-0.60 -0.72,-0.60 L -0.72,-0.60 Z"/></g><g transform="translate(70 131.5) rotate(0 0.5 -4.75)" stroke="none"><path fill="#1e1e1e" d="M -0.92,-0.30 Q -0.92,-0.30 -0.88,-1.24 -0.84,-2.19 -0.76,-3.12 -0.67,-4.06 -0.60,-4.91 -0.53,-5.76 -0.10,-7.29 0.32,-8.82 0.34,-8.92 0.36,-9.03 0.41,-9.12 0.47,-9.21 0.55,-9.28 0.62,-9.36 0.72,-9.40 0.82,-9.44 0.92,-9.45 1.03,-9.46 1.13,-9.44 1.24,-9.41 1.33,-9.35 1.42,-9.30 1.48,-9.21 1.55,-9.13 1.59,-9.03 1.63,-8.93 1.63,-8.83 1.63,-8.72 1.60,-8.62 1.57,-8.52 1.51,-8.43 1.45,-8.34 1.36,-8.28 1.28,-8.22 1.18,-8.19 1.07,-8.16 0.97,-8.16 0.86,-8.16 0.76,-8.20 0.66,-8.23 0.58,-8.30 0.50,-8.36 0.44,-8.45 0.38,-8.54 0.35,-8.64 0.33,-8.75 0.33,-8.85 0.34,-8.96 0.38,-9.06 0.43,-9.16 0.50,-9.23 0.57,-9.31 0.66,-9.37 0.75,-9.42 0.85,-9.44 0.96,-9.46 1.06,-9.45 1.17,-9.43 1.27,-9.39 1.36,-9.34 1.44,-9.27 1.51,-9.19 1.56,-9.10 1.61,-9.00 1.62,-8.90 1.64,-8.79 1.64,-8.79 1.64,-8.79 2.01,-7.19 2.38,-5.59 2.34,-4.66 2.31,-3.72 2.15,-2.49 1.99,-1.25 1.46,-0.47 0.92,0.30 0.87,0.41 0.82,0.52 0.74,0.61 0.67,0.70 0.58,0.77 0.48,0.84 0.37,0.88 0.27,0.93 0.15,0.95 0.03,0.97 -0.07,0.96 -0.19,0.95 -0.30,0.91 -0.41,0.88 -0.51,0.81 -0.61,0.75 -0.69,0.67 -0.77,0.58 -0.83,0.48 -0.89,0.38 -0.92,0.26 -0.96,0.15 -0.96,0.03 -0.97,-0.07 -0.94,-0.19 -0.92,-0.30 -0.92,-0.30 L -0.92,-0.30 Z"/></g><g transform="translate(315.5 41.5) rotate(0 4.5 19.75)" stroke="none"><path fill="#1e1e1e" d="M 0.62,-0.50 Q 0.62,-0.50 1.37,0.08 2.11,0.66 2.67,1.41 3.24,2.16 4.27,3.96 5.30,5.76 6.01,7.25 6.73,8.74 7.35,10.43 7.97,12.11 8.39,13.73 8.81,15.35 9.13,17.21 9.46,19.08 9.73,20.40 10.01,21.72 10.14,23.68 10.27,25.65 10.33,27.76 10.38,29.88 10.40,31.20 10.42,32.53 10.26,33.62 10.11,34.72 9.17,36.93 8.23,39.13 8.20,39.23 8.16,39.33 8.09,39.41 8.03,39.50 7.94,39.56 7.85,39.61 7.74,39.64 7.64,39.66 7.54,39.66 7.43,39.65 7.33,39.61 7.23,39.56 7.16,39.49 7.08,39.42 7.02,39.33 6.97,39.24 6.95,39.13 6.93,39.03 6.94,38.92 6.96,38.82 7.01,38.72 7.05,38.63 7.13,38.55 7.20,38.48 7.30,38.43 7.39,38.38 7.50,38.37 7.60,38.35 7.71,38.37 7.81,38.39 7.90,38.45 8.00,38.50 8.07,38.58 8.14,38.66 8.18,38.75 8.22,38.85 8.23,38.96 8.24,39.06 8.22,39.17 8.19,39.27 8.13,39.36 8.08,39.45 7.99,39.51 7.91,39.58 7.81,39.62 7.71,39.65 7.61,39.66 7.50,39.66 7.40,39.63 7.30,39.60 7.21,39.54 7.12,39.48 7.06,39.39 7.00,39.30 6.97,39.20 6.94,39.10 6.94,38.99 6.94,38.89 6.94,38.89 6.94,38.89 7.11,36.61 7.28,34.33 7.39,33.45 7.50,32.57 7.48,31.26 7.46,29.95 7.42,27.89 7.37,25.83 7.27,24.06 7.17,22.30 6.89,20.93 6.61,19.56 6.32,17.80 6.03,16.05 5.66,14.56 5.30,13.06 4.76,11.49 4.22,9.92 3.56,8.49 2.90,7.05 2.04,5.35 1.18,3.65 0.68,2.92 0.18,2.20 -0.22,1.35 -0.62,0.50 -0.67,0.42 -0.73,0.33 -0.76,0.24 -0.79,0.15 -0.79,0.05 -0.80,-0.04 -0.78,-0.13 -0.77,-0.23 -0.73,-0.32 -0.69,-0.40 -0.63,-0.48 -0.57,-0.56 -0.49,-0.62 -0.42,-0.68 -0.33,-0.72 -0.24,-0.76 -0.15,-0.78 -0.05,-0.80 0.04,-0.79 0.13,-0.79 0.23,-0.76 0.32,-0.73 0.40,-0.68 0.49,-0.63 0.55,-0.57 0.62,-0.50 0.62,-0.50 L 0.62,-0.50 Z"/></g><g transform="translate(323.5 71) rotate(0 -1.25 7.5)" stroke="none"><path fill="#1e1e1e" d="M 0.75,0.07 Q 0.75,0.07 0.81,1.53 0.88,2.99 0.84,4.29 0.80,5.59 0.78,6.57 0.77,7.55 0.76,8.54 0.75,9.53 0.59,10.75 0.44,11.97 -0.63,13.49 -1.72,15.01 -1.79,15.09 -1.86,15.17 -1.95,15.22 -2.05,15.27 -2.15,15.29 -2.26,15.30 -2.36,15.29 -2.47,15.27 -2.56,15.22 -2.66,15.17 -2.73,15.09 -2.80,15.02 -2.85,14.92 -2.89,14.82 -2.90,14.72 -2.91,14.61 -2.89,14.51 -2.87,14.40 -2.81,14.31 -2.76,14.22 -2.68,14.15 -2.60,14.08 -2.50,14.04 -2.40,14.01 -2.29,14.00 -2.19,13.99 -2.09,14.02 -1.98,14.05 -1.90,14.11 -1.81,14.17 -1.74,14.25 -1.68,14.34 -1.65,14.44 -1.61,14.54 -1.61,14.65 -1.61,14.75 -1.64,14.85 -1.68,14.95 -1.74,15.04 -1.81,15.12 -1.89,15.18 -1.98,15.24 -2.09,15.27 -2.19,15.30 -2.29,15.29 -2.40,15.29 -2.50,15.25 -2.60,15.21 -2.68,15.14 -2.76,15.07 -2.81,14.98 -2.87,14.89 -2.89,14.79 -2.91,14.68 -2.90,14.58 -2.89,14.47 -2.85,14.37 -2.80,14.28 -2.80,14.28 -2.80,14.28 -2.40,12.96 -2.00,11.64 -1.86,10.57 -1.72,9.50 -1.70,8.50 -1.69,7.49 -1.65,6.48 -1.62,5.47 -1.54,4.11 -1.45,2.75 -1.10,1.34 -0.75,-0.07 -0.73,-0.16 -0.71,-0.25 -0.67,-0.33 -0.63,-0.41 -0.57,-0.48 -0.51,-0.55 -0.44,-0.60 -0.36,-0.66 -0.28,-0.69 -0.19,-0.73 -0.10,-0.74 -0.01,-0.75 0.07,-0.74 0.16,-0.73 0.25,-0.70 0.33,-0.67 0.41,-0.62 0.49,-0.57 0.55,-0.51 0.61,-0.44 0.65,-0.36 0.70,-0.28 0.72,-0.19 0.75,-0.10 0.75,-0.01 0.75,0.07 0.75,0.07 L 0.75,0.07 Z"/></g><g transform="translate(348 53.5) rotate(0 0.5 7.75)" stroke="none"><path fill="#1e1e1e" d="M 0.61,0.61 Q 0.61,0.61 -0.09,1.62 -0.81,2.63 -1.66,3.92 -2.52,5.21 -3.15,6.43 -3.78,7.65 -3.87,9.39 -3.95,11.12 -3.67,12.09 -3.38,13.07 -2.58,13.47 -1.78,13.87 -0.89,14.08 0.00,14.28 1.01,13.85 2.03,13.41 2.80,12.64 3.57,11.87 3.99,10.83 4.41,9.78 4.74,8.25 5.08,6.72 4.83,5.58 4.58,4.44 3.76,3.52 2.94,2.59 2.24,2.06 1.53,1.53 0.66,1.58 -0.20,1.64 -0.28,1.64 -0.35,1.64 -0.43,1.63 -0.51,1.62 -0.58,1.58 -0.65,1.55 -0.72,1.50 -0.78,1.45 -0.83,1.39 -0.88,1.33 -0.91,1.26 -0.94,1.18 -0.96,1.11 -0.97,1.03 -0.97,0.95 -0.96,0.87 -0.94,0.80 -0.91,0.72 -0.87,0.65 -0.83,0.58 -0.78,0.53 -0.72,0.47 -0.65,0.43 -0.58,0.39 -0.51,0.37 -0.43,0.34 -0.64,0.47 -0.84,0.60 -0.77,0.52 -0.69,0.45 -0.59,0.40 -0.50,0.36 -0.39,0.35 -0.29,0.33 -0.18,0.35 -0.08,0.38 0.00,0.43 0.09,0.48 0.16,0.56 0.23,0.64 0.27,0.74 0.31,0.84 0.32,0.95 0.33,1.05 0.30,1.15 0.27,1.26 0.22,1.35 0.16,1.43 0.07,1.50 -0.00,1.57 -0.10,1.60 -0.20,1.64 -0.31,1.64 -0.41,1.64 -0.51,1.61 -0.61,1.57 -0.70,1.51 -0.79,1.45 -0.85,1.36 -0.91,1.27 -0.94,1.17 -0.97,1.07 -0.96,0.96 -0.96,0.86 -0.92,0.76 -0.88,0.66 -0.81,0.58 -0.75,0.49 -0.66,0.44 -0.57,0.38 -0.46,0.36 -0.36,0.33 -0.25,0.34 -0.15,0.35 -0.05,0.40 0.04,0.44 0.11,0.51 0.19,0.58 0.24,0.68 0.29,0.77 0.31,0.88 0.33,0.98 0.32,1.09 0.30,1.19 0.05,1.41 -0.20,1.64 -0.28,1.64 -0.35,1.64 -0.43,1.63 -0.51,1.62 -0.58,1.58 -0.65,1.55 -0.72,1.50 -0.78,1.45 -0.83,1.39 -0.88,1.33 -0.91,1.26 -0.94,1.18 -0.96,1.11 -0.97,1.03 -0.97,0.95 -0.96,0.87 -0.94,0.80 -0.91,0.72 -0.87,0.65 -0.83,0.58 -0.78,0.53 -0.72,0.47 -0.65,0.43 -0.58,0.39 -0.51,0.37 -0.43,0.34 -0.29,0.12 -0.14,-0.10 1.12,-0.36 2.38,-0.61 3.66,0.14 4.93,0.90 6.07,2.34 7.20,3.78 7.49,5.51 7.77,7.24 7.33,9.07 6.89,10.90 6.17,12.36 5.44,13.81 4.20,14.86 2.96,15.92 1.27,16.38 -0.41,16.84 -1.81,16.47 -3.22,16.09 -4.46,15.12 -5.69,14.15 -6.15,12.56 -6.60,10.98 -6.39,8.74 -6.17,6.49 -5.43,5.11 -4.69,3.72 -3.66,2.27 -2.63,0.81 -1.62,0.10 -0.61,-0.61 -0.53,-0.68 -0.45,-0.74 -0.35,-0.78 -0.25,-0.83 -0.15,-0.85 -0.05,-0.86 0.05,-0.86 0.15,-0.85 0.25,-0.82 0.35,-0.79 0.44,-0.73 0.53,-0.68 0.61,-0.61 0.68,-0.53 0.73,-0.44 0.79,-0.35 0.82,-0.25 0.85,-0.15 0.86,-0.05 0.86,0.05 0.85,0.15 0.83,0.25 0.78,0.35 0.74,0.45 0.68,0.53 0.61,0.61 0.61,0.61 L 0.61,0.61 Z"/></g><g transform="translate(346.5 66.5) rotate(0 3.25 -6.5)" stroke="none"><path fill="#1e1e1e" d="M -0.92,-0.13 Q -0.92,-0.13 -1.01,-1.17 -1.10,-2.21 -0.73,-3.35 -0.36,-4.48 0.23,-5.83 0.83,-7.18 1.37,-8.31 1.91,-9.45 3.76,-11.24 5.61,-13.03 5.70,-13.09 5.78,-13.15 5.89,-13.19 5.99,-13.22 6.09,-13.22 6.20,-13.22 6.30,-13.18 6.40,-13.15 6.48,-13.08 6.57,-13.02 6.63,-12.93 6.69,-12.84 6.71,-12.74 6.74,-12.64 6.73,-12.53 6.73,-12.42 6.69,-12.33 6.65,-12.23 6.58,-12.15 6.51,-12.07 6.42,-12.01 6.32,-11.96 6.22,-11.94 6.12,-11.92 6.01,-11.93 5.91,-11.94 5.81,-11.99 5.71,-12.03 5.64,-12.11 5.56,-12.18 5.51,-12.27 5.46,-12.37 5.45,-12.47 5.43,-12.58 5.45,-12.68 5.47,-12.79 5.52,-12.88 5.57,-12.97 5.65,-13.05 5.72,-13.12 5.82,-13.16 5.92,-13.21 6.02,-13.22 6.13,-13.23 6.23,-13.20 6.34,-13.18 6.43,-13.12 6.52,-13.07 6.58,-12.99 6.65,-12.91 6.69,-12.81 6.73,-12.71 6.73,-12.60 6.74,-12.49 6.71,-12.39 6.68,-12.29 6.62,-12.20 6.56,-12.12 6.56,-12.12 6.56,-12.12 5.53,-10.17 4.50,-8.22 3.97,-7.11 3.45,-6.00 2.89,-4.77 2.33,-3.54 2.00,-2.67 1.67,-1.80 1.30,-0.83 0.92,0.13 0.89,0.24 0.86,0.35 0.81,0.44 0.76,0.54 0.68,0.63 0.60,0.71 0.51,0.77 0.41,0.83 0.31,0.87 0.20,0.91 0.09,0.92 -0.01,0.93 -0.13,0.92 -0.24,0.90 -0.34,0.86 -0.45,0.82 -0.54,0.75 -0.63,0.68 -0.70,0.60 -0.78,0.51 -0.83,0.41 -0.88,0.31 -0.90,0.20 -0.93,0.09 -0.93,-0.01 -0.92,-0.13 -0.92,-0.13 L -0.92,-0.13 Z"/></g><g transform="translate(360 66) rotate(0 3 5.5)" stroke="none"><path fill="#1e1e1e" d="M 0.47,-0.94 Q 0.47,-0.94 1.41,-0.66 2.35,-0.39 3.10,0.13 3.85,0.65 4.32,1.03 4.78,1.41 5.13,2.06 5.48,2.71 5.27,3.81 5.07,4.90 4.40,5.70 3.73,6.50 3.09,7.28 2.45,8.06 1.90,8.82 1.35,9.58 3.82,9.94 6.30,10.30 6.40,10.33 6.50,10.37 6.58,10.43 6.67,10.49 6.73,10.58 6.79,10.67 6.82,10.77 6.85,10.87 6.85,10.98 6.85,11.08 6.81,11.18 6.77,11.28 6.70,11.36 6.64,11.45 6.55,11.50 6.46,11.56 6.35,11.58 6.25,11.61 6.14,11.60 6.04,11.59 5.94,11.55 5.84,11.50 5.77,11.43 5.69,11.36 5.64,11.27 5.58,11.17 5.56,11.07 5.55,10.96 5.56,10.86 5.58,10.75 5.62,10.66 5.67,10.56 5.75,10.49 5.82,10.42 5.92,10.37 6.02,10.32 6.12,10.31 6.23,10.30 6.33,10.32 6.43,10.34 6.53,10.39 6.62,10.44 6.69,10.52 6.76,10.60 6.80,10.70 6.84,10.80 6.85,10.91 6.86,11.01 6.83,11.11 6.80,11.22 6.74,11.31 6.69,11.40 6.60,11.46 6.52,11.53 6.42,11.56 6.32,11.60 6.21,11.60 6.11,11.60 6.11,11.60 6.11,11.60 3.89,11.68 1.67,11.76 0.55,11.49 -0.56,11.22 -0.86,10.69 -1.16,10.15 -0.92,9.13 -0.68,8.10 -0.10,7.30 0.47,6.49 1.51,5.26 2.55,4.03 2.37,3.49 2.20,2.95 1.65,2.53 1.09,2.12 0.31,1.53 -0.47,0.94 -0.57,0.87 -0.68,0.80 -0.76,0.70 -0.85,0.61 -0.91,0.50 -0.97,0.39 -1.00,0.26 -1.04,0.14 -1.04,0.02 -1.04,-0.10 -1.01,-0.22 -0.99,-0.35 -0.93,-0.46 -0.87,-0.58 -0.79,-0.67 -0.71,-0.77 -0.60,-0.84 -0.50,-0.92 -0.38,-0.96 -0.27,-1.01 -0.14,-1.03 -0.02,-1.05 0.10,-1.03 0.23,-1.02 0.35,-0.98 0.47,-0.94 0.47,-0.94 L 0.47,-0.94 Z"/></g></svg>